<?xml version="1.0" encoding="UTF-8" standalone="no"?>
<!-- Created with Inkscape (http://www.inkscape.org/) -->

<svg
   xmlns:dc="http://purl.org/dc/elements/1.1/"
   xmlns:cc="http://creativecommons.org/ns#"
   xmlns:rdf="http://www.w3.org/1999/02/22-rdf-syntax-ns#"
   xmlns:svg="http://www.w3.org/2000/svg"
   xmlns="http://www.w3.org/2000/svg"
   xmlns:sodipodi="http://sodipodi.sourceforge.net/DTD/sodipodi-0.dtd"
   xmlns:inkscape="http://www.inkscape.org/namespaces/inkscape"
   width="297mm"
   height="210mm"
   viewBox="0 0 297 210"
   version="1.1"
   id="svg8"
   inkscape:version="0.92.5 (2060ec1f9f, 2020-04-08)"
   sodipodi:docname="Banner Sprints.svg">
  <defs
     id="defs2" />
  <sodipodi:namedview
     id="base"
     pagecolor="#ffffff"
     bordercolor="#666666"
     borderopacity="1.0"
     inkscape:pageopacity="0.0"
     inkscape:pageshadow="2"
     inkscape:zoom="0.7"
     inkscape:cx="342.82043"
     inkscape:cy="879.38592"
     inkscape:document-units="mm"
     inkscape:current-layer="layer1"
     showgrid="false"
     inkscape:window-width="1920"
     inkscape:window-height="1016"
     inkscape:window-x="0"
     inkscape:window-y="27"
     inkscape:window-maximized="1" />
  <metadata
     id="metadata5">
    <rdf:RDF>
      <cc:Work
         rdf:about="">
        <dc:format>image/svg+xml</dc:format>
        <dc:type
           rdf:resource="http://purl.org/dc/dcmitype/StillImage" />
        <dc:title></dc:title>
      </cc:Work>
    </rdf:RDF>
  </metadata>
  <g
     inkscape:label="Capa 1"
     inkscape:groupmode="layer"
     id="layer1"
     transform="translate(0,-87)">
    <path
       style="fill:#1a1a1a;stroke-width:0.26458335"
       d="m 19.3445,120.98758 v -16.53646 h 26.424341 26.42435 l 7.45441,8.26823 c 4.09993,4.54753 7.45625,8.38729 7.4585,8.53281 0.002,0.14552 -3.24765,3.86606 -7.22199,8.26786 l -7.22607,8.00328 -26.65677,3.7e-4 -26.656771,3.7e-4 z m 64.597781,16.29737 c 0.0511,-0.14683 3.27777,-3.77908 7.17045,-8.07167 3.89268,-4.29258 7.0776,-7.87525 7.0776,-7.96148 0,-0.15425 -7.38408,-8.38658 -12.51836,-13.95641 l -2.62185,-2.84427 h 3.05587 3.05587 l 3.7703,4.16719 c 2.07367,2.29195 5.30444,5.84981 7.179499,7.90635 4.75539,5.21568 4.47715,4.5321 2.65396,6.52025 -0.84292,0.91919 -4.074959,4.48196 -7.182309,7.91727 -3.74717,4.14267 -5.86704,6.28758 -6.29504,6.3694 -1.33935,0.25603 -5.43881,0.22028 -5.34599,-0.0466 z"
       id="path826"
       inkscape:connector-curvature="0"
       sodipodi:nodetypes="ccccscsccccccsscccccccccc"
       inkscape:export-xdpi="1024"
       inkscape:export-ydpi="1024" />
    <rect
       style="opacity:1;fill:#1a1a1a;fill-opacity:1;stroke-width:0.04934574"
       id="rect1465"
       width="48.151939"
       height="11.933307"
       x="23.828115"
       y="109.60831"
       inkscape:export-xdpi="1024"
       inkscape:export-ydpi="1024" />
    <text
       xml:space="preserve"
       style="font-style:normal;font-weight:normal;font-size:5.8666153px;line-height:1.25;font-family:sans-serif;letter-spacing:0px;word-spacing:0px;fill:#000000;fill-opacity:1;stroke:none;stroke-width:0.14666538"
       x="22.218729"
       y="128.2549"
       id="text1469"
       transform="scale(1.0817046,0.92446681)"
       inkscape:export-xdpi="1024"
       inkscape:export-ydpi="1024"><tspan
         sodipodi:role="line"
         id="tspan1467"
         x="22.218729"
         y="128.2549"
         style="font-style:normal;font-variant:normal;font-weight:normal;font-stretch:normal;font-size:14.07987785px;font-family:Keraleeyam;-inkscape-font-specification:Keraleeyam;fill:#ffffff;stroke-width:0.14666538">Phillips</tspan></text>
    <path
       inkscape:connector-curvature="0"
       style="opacity:1;fill:#ffffff;fill-opacity:1;stroke-width:0.02270652"
       d="m 65.224427,110.2751 a 5.2498702,5.2275937 0 0 1 5.249871,5.22761 5.2498702,5.2275937 0 0 1 -5.249871,5.22758 5.2498702,5.2275937 0 0 1 -5.249872,-5.22758 5.2498702,5.2275937 0 0 1 5.249872,-5.22761 z m -0.98301,1.29033 c -0.08932,0.002 -0.183398,0.0558 -0.268948,0.15545 -0.04322,0.0503 -0.196613,0.22075 -0.340872,0.37876 -0.862394,0.94459 -0.966771,1.06232 -0.9852,1.11081 -0.02506,0.066 -0.01913,0.15123 0.01553,0.22285 0.03902,0.0807 0.359458,0.36956 0.44296,0.39938 0.07346,0.0263 0.106478,0.026 0.183548,-0.002 0.03414,-0.0122 0.07436,-0.0351 0.08934,-0.051 0.04472,-0.0473 0.385436,-0.42198 0.690912,-0.75962 0.157353,-0.17393 0.371276,-0.40966 0.475405,-0.52385 0.215222,-0.23605 0.242941,-0.27572 0.256808,-0.3682 0.01681,-0.11196 -0.02814,-0.18431 -0.220955,-0.35605 -0.0932,-0.083 -0.192613,-0.16343 -0.220909,-0.17873 -0.03737,-0.0202 -0.077,-0.0296 -0.117599,-0.0284 z m 3.754335,0.81505 c -0.006,-0.006 -0.158583,0.13771 -0.339723,0.3187 -0.181147,0.18099 -0.336504,0.32905 -0.345216,0.32905 -0.01591,0 -0.06003,-0.1112 -0.160685,-0.40527 -0.02994,-0.0874 -0.05808,-0.16909 -0.06251,-0.18148 -0.0053,-0.0137 -0.01381,-0.0168 -0.02266,-0.008 -0.01433,0.0143 -0.159266,0.77241 -0.159266,0.83287 0,0.017 0.01441,0.0386 0.03204,0.0481 0.04015,0.0215 0.04345,0.0137 0.08645,-0.20552 0.01786,-0.0911 0.03992,-0.16809 0.04892,-0.17104 0.01591,-0.005 0.07181,0.12376 0.126985,0.29298 0.01493,0.0459 0.03534,0.0831 0.04525,0.0827 0.0099,-5.6e-4 0.132455,-0.11458 0.272325,-0.25369 0.211447,-0.21029 0.255066,-0.247 0.25875,-0.21778 0.0023,0.0194 -0.02041,0.20684 -0.0508,0.41665 -0.03061,0.21169 -0.04915,0.38752 -0.04157,0.39511 0.0076,0.008 0.117763,-0.008 0.249453,-0.0358 0.254024,-0.0533 0.299001,-0.0585 0.283131,-0.0329 -0.0053,0.009 -0.111543,0.0922 -0.23537,0.18473 -0.123833,0.0925 -0.22737,0.17743 -0.230048,0.18871 -0.003,0.0128 0.02791,0.03 0.08191,0.0457 0.04772,0.0139 0.09062,0.0252 0.09526,0.0252 0.0045,0 0.02851,0.008 0.0532,0.0176 0.04157,0.0164 0.04247,0.0185 0.01298,0.0307 -0.01748,0.007 -0.07114,0.0136 -0.119189,0.0144 -0.09495,0.002 -0.122116,0.0118 -0.127466,0.0486 -0.01043,0.0715 -0.01441,0.0711 0.342042,0.0452 0.104902,-0.008 0.262225,-0.0191 0.349643,-0.0255 0.08841,-0.007 0.158629,-0.0188 0.158246,-0.0275 -3.68e-4,-0.009 -0.11011,-0.0599 -0.243893,-0.11362 -0.133784,-0.0537 -0.250182,-0.10461 -0.258631,-0.11306 -0.0099,-0.01 0.09542,-0.10776 0.295586,-0.27475 0.264972,-0.22106 0.333908,-0.28536 0.30607,-0.28536 -0.003,0 -0.186745,0.0284 -0.409013,0.063 -0.234746,0.0366 -0.410011,0.0572 -0.41819,0.049 -0.0082,-0.008 0.01748,-0.23481 0.06116,-0.54071 0.04142,-0.28964 0.07061,-0.53127 0.06491,-0.53697 z m -3.205551,0.0582 c -0.006,-1.1e-4 -0.01088,0.002 -0.01553,0.005 -0.01553,0.0111 -0.237906,0.25237 -0.494248,0.53616 -0.256342,0.28378 -0.525072,0.58061 -0.597191,0.6596 -0.07211,0.079 -0.13112,0.15238 -0.13112,0.16313 0,0.0107 0.132283,0.13951 0.294004,0.28612 0.16172,0.14662 0.293695,0.27728 0.293275,0.2904 -5.63e-4,0.0131 -0.0574,0.0845 -0.126618,0.15873 l -0.125845,0.13487 -0.04667,-0.0276 c -0.107123,-0.0633 -0.11618,-0.0571 -0.444332,0.30221 -0.258969,0.28358 -1.10926,1.22101 -1.586902,1.74954 -0.130917,0.14486 -0.148303,0.17101 -0.148303,0.22298 0,0.0647 0.03714,0.10585 0.343835,0.38083 0.150607,0.13504 0.208874,0.16223 0.270367,0.1262 0.03151,-0.0185 0.267942,-0.27038 0.593739,-0.63263 0.07429,-0.0826 0.213803,-0.23631 0.309963,-0.34152 0.09616,-0.10521 0.300007,-0.32997 0.452985,-0.49945 0.152978,-0.16947 0.352412,-0.38905 0.443207,-0.48799 0.09079,-0.0989 0.181965,-0.20281 0.20263,-0.23082 0.04637,-0.0629 0.04825,-0.13823 0.0045,-0.19362 l -0.03294,-0.0419 0.131203,-0.14306 c 0.07219,-0.0787 0.136635,-0.14302 0.143268,-0.14302 0.0068,0 0.06453,0.0482 0.128689,0.10728 0.39958,0.36748 0.475428,0.4331 0.500295,0.4331 0.0077,0 0.04135,-0.0327 0.07481,-0.0728 0.03347,-0.04 0.147651,-0.16754 0.253716,-0.28333 0.573885,-0.62647 0.892725,-0.98539 0.896927,-1.00969 0.003,-0.018 -0.07234,-0.0972 -0.221682,-0.23273 -0.124502,-0.11299 -0.31665,-0.28772 -0.426999,-0.38825 -0.11035,-0.10053 -0.264506,-0.2406 -0.342575,-0.31131 -0.07807,-0.0707 -0.241417,-0.21929 -0.362955,-0.33014 -0.158606,-0.14466 -0.207508,-0.18576 -0.233628,-0.18652 z m 1.959319,1.40194 c -0.04405,-5.7e-4 -0.08875,0.007 -0.123737,0.024 -0.02986,0.0142 -0.109599,0.0875 -0.17717,0.16288 -0.06761,0.0754 -0.198263,0.21939 -0.290431,0.31991 -0.09218,0.10053 -0.199509,0.21884 -0.238498,0.2629 -0.03894,0.0441 -0.219589,0.24345 -0.401329,0.44308 -0.18174,0.19963 -0.341314,0.38407 -0.354634,0.40983 -0.01336,0.0257 -0.02461,0.0741 -0.02506,0.10736 -0.0015,0.12052 0.02701,0.16495 0.221405,0.34302 0.101705,0.0932 0.200694,0.17539 0.219934,0.18271 0.07031,0.0267 0.142983,0.0305 0.198533,0.0101 0.0785,-0.0288 0.107506,-0.0516 0.20666,-0.16268 0.137948,-0.15453 0.500258,-0.55484 0.690019,-0.76239 0.42369,-0.46339 0.574057,-0.63414 0.59942,-0.68071 0.03684,-0.0677 0.03624,-0.19588 -0.0015,-0.25742 -0.03789,-0.0621 -0.335941,-0.33949 -0.40361,-0.37559 -0.03264,-0.0174 -0.07616,-0.0265 -0.120239,-0.027 z m 1.737718,3.96379 h -2.14571 -4.373377 l -0.07481,0.0368 c -0.143359,0.0706 -0.238724,0.22001 -0.239879,0.37575 -0.0015,0.17582 0.09605,0.32826 0.255509,0.39999 l 0.0839,0.0377 4.361033,-1e-4 2.133322,-5e-5 0.08004,-0.0373 v -4e-5 c 0.09534,-0.0444 0.201092,-0.15866 0.227085,-0.2454 0.04255,-0.14192 0.01103,-0.31286 -0.07744,-0.42018 -0.02619,-0.0317 -0.08855,-0.0778 -0.138639,-0.10241 z"
       id="path836"
       inkscape:export-xdpi="1024"
       inkscape:export-ydpi="1024" />
    <path
       style="opacity:1;fill:#f9f9f9;fill-opacity:1;stroke-width:0.04934574"
       d="m 24.321457,123.34209 v 6.43287 h 0.830684 v -3.07929 l 0.942197,3.07929 h 0.896514 l 0.952215,-3.08613 v 3.08613 h 0.820569 v -6.43287 H 28.07983 l -1.534728,4.97901 -1.534736,-4.97901 z m 17.414321,0 v 1.11789 h 1.033277 v 5.31498 h 0.825672 v -5.31498 h 1.033277 v -1.11789 z m 3.246799,0 v 6.43287 h 0.830684 v -2.8049 c 0,-0.15088 0.02191,-0.29263 0.06581,-0.42522 0.0439,-0.13716 0.103041,-0.25601 0.177335,-0.3566 0.07429,-0.10059 0.160362,-0.18064 0.258293,-0.24008 0.101308,-0.0594 0.209406,-0.0892 0.324221,-0.0892 0.114807,0 0.221179,0.0297 0.319103,0.0892 0.101308,0.0594 0.189019,0.13949 0.263305,0.24008 0.07767,0.10059 0.138451,0.21944 0.182348,0.3566 0.0439,0.13259 0.06596,0.27434 0.06596,0.42522 v 2.8049 h 0.820561 v -2.8049 c 0,-0.30633 -0.04397,-0.59437 -0.13175,-0.86413 -0.08442,-0.26975 -0.202615,-0.50528 -0.354573,-0.70645 -0.148581,-0.20575 -0.324101,-0.36576 -0.526709,-0.48006 -0.199231,-0.11887 -0.411969,-0.1783 -0.638213,-0.1783 -0.151958,0 -0.297185,0.0275 -0.435636,0.0823 -0.138451,0.0503 -0.268476,0.12117 -0.390043,0.21261 v -1.69394 z m 14.152305,0 v 1.11789 h 1.033269 v 5.31498 h 0.825672 v -5.31498 H 62.0271 v -1.11789 z m -27.904444,1.39903 c -0.256635,0 -0.498037,0.0663 -0.724281,0.19892 -0.222868,0.13259 -0.418775,0.31314 -0.587616,0.54175 -0.168849,0.22403 -0.302243,0.48927 -0.400166,0.7956 -0.09793,0.30633 -0.146885,0.63317 -0.146885,0.98065 0,0.34748 0.04892,0.67441 0.146885,0.98075 0.09792,0.30633 0.231317,0.57374 0.400166,0.80235 0.168841,0.22403 0.364748,0.4024 0.587616,0.535 0.226244,0.13258 0.467646,0.19882 0.724281,0.19882 0.256642,0 0.498134,-0.0662 0.724379,-0.19882 0.226252,-0.1326 0.422062,-0.31097 0.587526,-0.535 0.168841,-0.22861 0.302235,-0.49602 0.400158,-0.80235 0.09793,-0.30634 0.146886,-0.63327 0.146886,-0.98075 0,-0.34748 -0.04892,-0.67432 -0.146886,-0.98065 -0.09792,-0.30633 -0.231317,-0.57157 -0.400158,-0.7956 -0.165464,-0.22861 -0.361274,-0.40916 -0.587526,-0.54175 -0.226245,-0.13259 -0.467737,-0.19892 -0.724379,-0.19892 z m 4.330763,0 c -0.256642,0 -0.498036,0.0663 -0.724281,0.19892 -0.226252,0.12802 -0.423787,0.3063 -0.592629,0.5349 -0.168841,0.22403 -0.302234,0.48927 -0.400165,0.79561 -0.09793,0.30633 -0.146878,0.63317 -0.146878,0.98065 v 2.52376 h 0.830684 v -2.52376 c 0,-0.19204 0.02701,-0.37258 0.08105,-0.54175 0.05403,-0.16917 0.128276,-0.31546 0.222823,-0.4389 0.09455,-0.12802 0.204289,-0.22861 0.329226,-0.30177 0.124944,-0.0732 0.258338,-0.10977 0.400165,-0.10977 z m 2.117242,0 c -0.256642,0 -0.498037,0.0663 -0.724281,0.19892 -0.226252,0.13259 -0.423788,0.31314 -0.592637,0.54175 -0.168841,0.22403 -0.302227,0.48927 -0.400158,0.7956 -0.09793,0.30633 -0.146885,0.63317 -0.146885,0.98065 0,0.34748 0.04892,0.67441 0.146885,0.98075 0.09793,0.30175 0.231317,0.5669 0.400158,0.7955 0.168849,0.2286 0.366385,0.40925 0.592637,0.54185 0.226244,0.13258 0.467639,0.19882 0.724281,0.19882 0.216115,0 0.427217,-0.0503 0.633209,-0.15083 v -1.26873 c -0.0878,0.0914 -0.185702,0.1646 -0.293763,0.21946 -0.104685,0.0548 -0.217878,0.0823 -0.339446,0.0823 -0.148581,0 -0.286972,-0.0366 -0.415293,-0.10977 -0.124945,-0.0777 -0.233043,-0.18058 -0.324221,-0.3086 -0.09117,-0.13259 -0.163784,-0.28116 -0.21781,-0.44575 -0.05065,-0.16917 -0.07594,-0.34755 -0.07594,-0.535 0,-0.19203 0.02529,-0.37258 0.07594,-0.54174 0.05403,-0.16917 0.12664,-0.31774 0.21781,-0.44575 0.09455,-0.12802 0.204289,-0.22861 0.329233,-0.30177 0.124945,-0.0777 0.2617,-0.11661 0.410281,-0.11661 0.199231,0 0.379943,0.0708 0.542031,0.21261 0.162088,0.13716 0.287017,0.31771 0.374818,0.54175 h -1.448668 v 1.12473 h 2.355395 c 0.05403,-0.39777 0.04217,-0.77723 -0.03549,-1.13843 -0.07429,-0.36119 -0.19758,-0.67895 -0.369798,-0.95327 -0.168841,-0.27433 -0.376484,-0.49149 -0.622996,-0.65152 -0.246505,-0.16459 -0.511656,-0.24692 -0.795312,-0.24692 z m 13.083558,0 c -0.260012,0 -0.50314,0.0663 -0.729392,0.19892 -0.226244,0.13259 -0.423787,0.31314 -0.592628,0.54175 -0.165465,0.22403 -0.297125,0.48927 -0.395056,0.7956 -0.09792,0.30633 -0.146975,0.63317 -0.146975,0.98065 0,0.34748 0.04907,0.67441 0.146975,0.98075 0.09793,0.30175 0.229591,0.5669 0.395056,0.7955 0.168841,0.2286 0.366384,0.40925 0.592628,0.54185 0.226252,0.13258 0.46938,0.19882 0.729392,0.19882 0.104684,0 0.207688,-0.0113 0.308995,-0.0342 0.1013,-0.0275 0.199209,-0.0641 0.293756,-0.10978 v -1.24819 c -0.08442,0.0869 -0.178956,0.15547 -0.283641,0.20576 -0.1013,0.0457 -0.207673,0.0687 -0.31911,0.0687 -0.141828,0 -0.27685,-0.0366 -0.405171,-0.10977 -0.124945,-0.0777 -0.234776,-0.17832 -0.329323,-0.30176 -0.09455,-0.12802 -0.168804,-0.27659 -0.222831,-0.44575 -0.05403,-0.16917 -0.08105,-0.34982 -0.08105,-0.54185 0,-0.19202 0.02701,-0.37257 0.08105,-0.54174 0.05403,-0.17374 0.128276,-0.32467 0.222831,-0.45269 0.09455,-0.12801 0.204378,-0.22861 0.329323,-0.30176 0.128321,-0.0732 0.263343,-0.10967 0.405171,-0.10967 0.141827,0 0.273488,0.0365 0.395055,0.10967 0.124945,0.0732 0.234679,0.17375 0.329234,0.30176 0.09455,0.12802 0.168893,0.27895 0.22292,0.45269 0.05403,0.16917 0.08106,0.34972 0.08106,0.54174 v 2.51693 h 0.825582 v -2.51693 c 0,-0.34747 -0.04892,-0.67431 -0.146886,-0.98064 -0.09793,-0.30633 -0.231324,-0.57158 -0.400165,-0.79561 -0.165465,-0.2286 -0.361274,-0.40915 -0.587519,-0.54174 -0.222875,-0.13259 -0.462634,-0.19893 -0.719276,-0.19893 z m 4.315538,0 c -0.226245,0 -0.440618,0.0594 -0.643226,0.1783 -0.199239,0.1143 -0.373123,0.27431 -0.521696,0.48006 -0.148581,0.20117 -0.26678,0.4367 -0.354581,0.70645 -0.08779,0.26976 -0.13175,0.5578 -0.13175,0.86413 v 2.8049 h 0.830691 v -2.8049 c 0,-0.15088 0.02026,-0.29491 0.06078,-0.43207 0.0439,-0.13716 0.103049,-0.25611 0.177336,-0.35669 0.07429,-0.10058 0.160369,-0.18054 0.258293,-0.23998 0.101308,-0.0594 0.209309,-0.0892 0.324123,-0.0892 0.114814,0 0.222913,0.0297 0.324221,0.0892 0.1013,0.0594 0.189108,0.1394 0.263395,0.23998 0.07429,0.10058 0.133349,0.21953 0.177245,0.35669 0.0439,0.13716 0.06596,0.28119 0.06596,0.43207 v 2.8049 h 0.825582 v -2.8049 c 0,-0.30633 -0.04382,-0.59437 -0.131661,-0.86413 -0.08442,-0.26975 -0.202615,-0.50528 -0.354573,-0.70645 -0.148581,-0.20575 -0.32419,-0.36576 -0.526806,-0.48006 -0.199231,-0.11887 -0.413695,-0.1783 -0.643324,-0.1783 z m 8.428581,0 c -0.256642,0 -0.498037,0.0663 -0.724281,0.19892 -0.222876,0.13259 -0.418783,0.31314 -0.587624,0.54175 -0.168841,0.22403 -0.302235,0.48927 -0.400158,0.7956 -0.09793,0.30633 -0.146885,0.63317 -0.146885,0.98065 0,0.34748 0.04892,0.67441 0.146885,0.98075 0.09792,0.30633 0.231317,0.57374 0.400158,0.80235 0.168841,0.22403 0.364748,0.4024 0.587624,0.535 0.226244,0.13258 0.467639,0.19882 0.724281,0.19882 0.256642,0 0.498134,-0.0662 0.724379,-0.19882 0.226252,-0.1326 0.422062,-0.31097 0.587526,-0.535 0.168841,-0.22861 0.302235,-0.49602 0.400158,-0.80235 0.09793,-0.30634 0.146886,-0.63327 0.146886,-0.98075 0,-0.34748 -0.04892,-0.67432 -0.146886,-0.98065 -0.09792,-0.30633 -0.231317,-0.57157 -0.400158,-0.7956 -0.165464,-0.22861 -0.361274,-0.40916 -0.587526,-0.54175 -0.226245,-0.13259 -0.467737,-0.19892 -0.724379,-0.19892 z m 2.010937,0 1.489142,4.54694 -0.116525,0.4389 c -0.06753,0.26061 -0.178904,0.4687 -0.334238,0.62415 -0.151958,0.15545 -0.324206,0.2514 -0.516683,0.28798 v 1.12473 h 0.01013 c 0.178971,-0.0183 0.351226,-0.0708 0.516683,-0.15767 0.168849,-0.0823 0.324168,-0.19433 0.465996,-0.33607 0.141828,-0.14173 0.266757,-0.31093 0.374811,-0.50753 0.108061,-0.1966 0.194136,-0.41604 0.258293,-0.65836 l 1.448667,-5.36307 h -0.881281 l -0.815557,3.03129 -0.997807,-3.03129 z m 4.928502,0 c -0.141828,0 -0.276955,0.0366 -0.405276,0.10977 -0.124937,0.0732 -0.234672,0.17375 -0.329226,0.30176 -0.09118,0.12802 -0.165419,0.27659 -0.222823,0.44575 -0.05403,0.16917 -0.08105,0.34982 -0.08105,0.54184 0,0.17832 0.02356,0.33596 0.07084,0.47312 0.04727,0.13717 0.108061,0.25838 0.182348,0.36354 0.07767,0.10059 0.163836,0.18973 0.25839,0.26746 0.09455,0.0777 0.187361,0.14633 0.278538,0.20576 0.09117,0.0594 0.17561,0.11432 0.253281,0.16462 0.07766,0.0503 0.140177,0.0983 0.187458,0.14398 0.04727,0.0503 0.08603,0.10973 0.11642,0.1783 0.03377,0.0686 0.05072,0.14627 0.05072,0.23315 0,0.13259 -0.03549,0.2469 -0.106403,0.34291 -0.07091,0.096 -0.155251,0.14408 -0.253182,0.14408 -0.09793,0 -0.182371,-0.0481 -0.253281,-0.14408 -0.06753,-0.096 -0.101293,-0.21032 -0.101293,-0.34291 h -0.825679 c 0,0.21946 0.03039,0.42754 0.09118,0.62414 0.06416,0.1966 0.148596,0.36806 0.25328,0.51437 0.108061,0.14174 0.232991,0.25604 0.374819,0.34291 0.145204,0.0823 0.298888,0.12337 0.460976,0.12337 0.162087,0 0.315681,-0.041 0.460878,-0.12337 0.145204,-0.0869 0.270134,-0.20117 0.374818,-0.34291 0.108061,-0.14631 0.1925,-0.31777 0.253281,-0.51437 0.06416,-0.1966 0.09628,-0.40468 0.09628,-0.62414 0,-0.28805 -0.04059,-0.52348 -0.121628,-0.70636 -0.07766,-0.18289 -0.178934,-0.33609 -0.303878,-0.45953 -0.124944,-0.12345 -0.263433,-0.22858 -0.415391,-0.31545 -0.148581,-0.0914 -0.295436,-0.18977 -0.440641,-0.29492 -0.07429,-0.0503 -0.111415,-0.13479 -0.111415,-0.25367 0,-0.0777 0.02018,-0.14406 0.0607,-0.19892 0.04052,-0.0594 0.08957,-0.0892 0.146976,-0.0892 0.0574,0 0.107993,0.0297 0.15189,0.0892 0.0439,0.0549 0.06581,0.1212 0.06581,0.19892 h 0.82066 c 0,-0.19202 -0.02701,-0.37267 -0.08106,-0.54184 -0.05403,-0.16916 -0.128366,-0.31773 -0.22292,-0.44575 -0.09455,-0.12801 -0.206022,-0.22861 -0.334336,-0.30176 -0.124944,-0.0732 -0.25824,-0.10977 -0.400068,-0.10977 z m -39.215121,1.11789 c 0.141828,0 0.275221,0.0366 0.400166,0.10977 0.124944,0.0732 0.234679,0.17375 0.329226,0.30177 0.09455,0.12801 0.168893,0.27658 0.222927,0.44575 0.05403,0.16916 0.08096,0.34971 0.08096,0.54174 0,0.19202 -0.02694,0.37268 -0.08096,0.54184 -0.05403,0.16916 -0.128373,0.31773 -0.222927,0.44575 -0.09455,0.12802 -0.204282,0.22861 -0.329226,0.30176 -0.124945,0.0732 -0.258338,0.10977 -0.400166,0.10977 -0.141828,0 -0.275221,-0.0366 -0.400158,-0.10977 -0.124945,-0.0732 -0.234679,-0.17374 -0.329233,-0.30176 -0.09117,-0.12802 -0.163784,-0.27659 -0.217818,-0.44575 -0.05403,-0.16916 -0.08105,-0.34982 -0.08105,-0.54184 0,-0.19203 0.02701,-0.37258 0.08105,-0.54174 0.05403,-0.16917 0.126648,-0.31774 0.217818,-0.44575 0.09455,-0.12802 0.204288,-0.22861 0.329233,-0.30177 0.124937,-0.0732 0.25833,-0.10977 0.400158,-0.10977 z m 32.275682,0 c 0.141828,0 0.275222,0.0366 0.400166,0.10977 0.124937,0.0732 0.234679,0.17375 0.329226,0.30177 0.09455,0.12801 0.168893,0.27658 0.22292,0.44575 0.05403,0.16916 0.08106,0.34971 0.08106,0.54174 0,0.19202 -0.02701,0.37268 -0.08106,0.54184 -0.05403,0.16916 -0.128366,0.31773 -0.22292,0.44575 -0.09455,0.12802 -0.204289,0.22861 -0.329226,0.30176 -0.124944,0.0732 -0.258338,0.10977 -0.400166,0.10977 -0.141828,0 -0.275221,-0.0366 -0.400166,-0.10977 -0.124944,-0.0732 -0.234671,-0.17374 -0.329225,-0.30176 -0.09118,-0.12802 -0.163784,-0.27659 -0.217818,-0.44575 -0.05403,-0.16916 -0.08106,-0.34982 -0.08106,-0.54184 0,-0.19203 0.02701,-0.37258 0.08106,-0.54174 0.05403,-0.16917 0.12664,-0.31774 0.217818,-0.44575 0.09455,-0.12802 0.204281,-0.22861 0.329225,-0.30177 0.124945,-0.0732 0.258338,-0.10977 0.400166,-0.10977 z M 31.230438,126.49 c -0.07766,0 -0.150277,0.0206 -0.217818,0.0617 -0.06753,0.0411 -0.126588,0.096 -0.177238,0.16462 -0.05065,0.0686 -0.09124,0.1509 -0.121627,0.24691 -0.03039,0.0914 -0.04555,0.18967 -0.04555,0.29483 0,0.10516 0.01523,0.20347 0.04555,0.29491 0.03039,0.0914 0.07099,0.1715 0.121627,0.24009 0.05065,0.0686 0.109705,0.12336 0.177238,0.16451 0.06753,0.0411 0.140155,0.0618 0.217818,0.0618 0.07767,0 0.150277,-0.0206 0.217818,-0.0618 0.07091,-0.0411 0.131698,-0.0959 0.182348,-0.16451 0.05065,-0.0686 0.09114,-0.14865 0.12153,-0.24009 0.03039,-0.0914 0.04555,-0.18975 0.04555,-0.29491 0,-0.10516 -0.01516,-0.20338 -0.04555,-0.29483 -0.03039,-0.096 -0.07091,-0.17833 -0.12153,-0.24691 -0.05065,-0.0686 -0.111438,-0.12347 -0.182348,-0.16462 -0.06753,-0.0411 -0.140147,-0.0617 -0.217818,-0.0617 z m 32.275682,0 c -0.07766,0 -0.150277,0.0206 -0.217818,0.0617 -0.06753,0.0411 -0.126588,0.096 -0.177238,0.16462 -0.05065,0.0686 -0.09114,0.1509 -0.12153,0.24691 -0.03039,0.0914 -0.04562,0.18967 -0.04562,0.29483 0,0.10516 0.01523,0.20347 0.04562,0.29491 0.03039,0.0914 0.07091,0.1715 0.12153,0.24009 0.05065,0.0686 0.109705,0.12336 0.177238,0.16451 0.06753,0.0411 0.140155,0.0618 0.217818,0.0618 0.07767,0 0.150277,-0.0206 0.217818,-0.0618 0.07091,-0.0411 0.13169,-0.0959 0.182348,-0.16451 0.05065,-0.0686 0.09114,-0.14865 0.12153,-0.24009 0.03039,-0.0914 0.04555,-0.18975 0.04555,-0.29491 0,-0.10516 -0.01516,-0.20338 -0.04555,-0.29483 -0.03039,-0.096 -0.07091,-0.17833 -0.12153,-0.24691 -0.05065,-0.0686 -0.111438,-0.12347 -0.182348,-0.16462 -0.06753,-0.0411 -0.140147,-0.0617 -0.217818,-0.0617 z"
       id="rect830"
       inkscape:connector-curvature="0"
       inkscape:export-xdpi="1024"
       inkscape:export-ydpi="1024" />
    <path
       sodipodi:nodetypes="ccsscccccccccc"
       inkscape:connector-curvature="0"
       id="path1423"
       d="m 92.170689,137.28495 c 0.0511,-0.14683 3.27777,-3.77908 7.170447,-8.07167 3.892694,-4.29258 7.077614,-7.87525 7.077614,-7.96148 0,-0.15425 -7.384094,-8.38658 -12.518371,-13.95641 l -2.62185,-2.84427 h 3.05587 3.055866 l 3.770305,4.16719 c 2.07368,2.29195 5.30445,5.84981 7.1795,7.90635 4.75539,5.21568 4.47715,4.5321 2.65396,6.52025 -0.84292,0.91919 -4.07495,4.48196 -7.1823,7.91727 -3.74718,4.14267 -5.867048,6.28758 -6.295055,6.3694 -1.339346,0.25603 -5.438806,0.22028 -5.345986,-0.0466 z"
       style="fill:#808080;stroke-width:0.26458335"
       inkscape:export-xdpi="1024"
       inkscape:export-ydpi="1024" />
  </g>
</svg>
