<?xml version="1.0" encoding="UTF-8" standalone="no"?>
<!-- Created with Inkscape (http://www.inkscape.org/) -->

<svg
   xmlns:dc="http://purl.org/dc/elements/1.1/"
   xmlns:cc="http://creativecommons.org/ns#"
   xmlns:rdf="http://www.w3.org/1999/02/22-rdf-syntax-ns#"
   xmlns:svg="http://www.w3.org/2000/svg"
   xmlns="http://www.w3.org/2000/svg"
   xmlns:sodipodi="http://sodipodi.sourceforge.net/DTD/sodipodi-0.dtd"
   xmlns:inkscape="http://www.inkscape.org/namespaces/inkscape"
   width="1024px"
   height="512px"
   viewBox="0 0 1024 512"
   version="1.1"
   id="SVGRoot"
   sodipodi:docname="logo2.svg"
   inkscape:version="0.92.5 (2060ec1f9f, 2020-04-08)">
  <defs
     id="defs909" />
  <sodipodi:namedview
     id="base"
     pagecolor="#ffffff"
     bordercolor="#666666"
     borderopacity="1.0"
     inkscape:pageopacity="0.0"
     inkscape:pageshadow="2"
     inkscape:zoom="1"
     inkscape:cx="514.48584"
     inkscape:cy="193.35274"
     inkscape:document-units="px"
     inkscape:current-layer="layer1"
     showgrid="false"
     inkscape:window-width="1920"
     inkscape:window-height="1016"
     inkscape:window-x="0"
     inkscape:window-y="27"
     inkscape:window-maximized="1" />
  <metadata
     id="metadata912">
    <rdf:RDF>
      <cc:Work
         rdf:about="">
        <dc:format>image/svg+xml</dc:format>
        <dc:type
           rdf:resource="http://purl.org/dc/dcmitype/StillImage" />
        <dc:title></dc:title>
      </cc:Work>
    </rdf:RDF>
  </metadata>
  <g
     inkscape:label="Capa 1"
     inkscape:groupmode="layer"
     id="layer1">
    <rect
       style="opacity:1;fill:#000000;fill-opacity:1"
       id="rect1465"
       width="975.80737"
       height="241.83052"
       x="15.55635"
       y="21.267893" />
    <text
       xml:space="preserve"
       style="font-style:normal;font-weight:normal;font-size:118.88796997px;line-height:1.25;font-family:sans-serif;letter-spacing:0px;word-spacing:0px;fill:#000000;fill-opacity:1;stroke:none;stroke-width:2.9721992"
       x="18.240471"
       y="219.39685"
       id="text1469"
       transform="scale(1.0817046,0.92446685)"><tspan
         sodipodi:role="line"
         id="tspan1467"
         x="18.240471"
         y="219.39685"
         style="font-style:normal;font-variant:normal;font-weight:normal;font-stretch:normal;font-size:285.33114624px;font-family:Keraleeyam;-inkscape-font-specification:Keraleeyam;fill:#ffffff;stroke-width:2.9721992">Phillips</tspan></text>
    <text
       transform="scale(0.85940413,1.1635969)"
       id="text1473"
       y="376.79239"
       x="21.825392"
       style="font-style:normal;font-weight:normal;font-size:55.96483612px;line-height:1.25;font-family:sans-serif;letter-spacing:0px;word-spacing:0px;fill:#000000;fill-opacity:1;stroke:none;stroke-width:1.39912093"
       xml:space="preserve"><tspan
         style="font-style:normal;font-variant:normal;font-weight:bold;font-stretch:normal;font-size:119.44100189px;font-family:'digital geometric';-inkscape-font-specification:'digital geometric Bold';fill:#000000;stroke-width:1.39912093"
         y="376.79239"
         x="21.825392"
         id="tspan1471"
         sodipodi:role="line">More Than Toys</tspan></text>
    <text
       xml:space="preserve"
       style="font-style:normal;font-weight:normal;font-size:40px;line-height:1.25;font-family:'Nimbus Sans Narrow';letter-spacing:0px;word-spacing:0px;fill:#000000;fill-opacity:1;stroke:none;-inkscape-font-specification:'Nimbus Sans Narrow';font-stretch:normal;font-variant:normal;"
       x="982.87842"
       y="-188.03571"
       id="text1477"><tspan
         sodipodi:role="line"
         id="tspan1475"
         x="982.87842"
         y="-188.03571">A</tspan></text>
    <flowRoot
       xml:space="preserve"
       id="flowRoot1479"
       style="font-style:normal;font-weight:normal;font-size:40px;line-height:1.25;font-family:'Nimbus Sans Narrow';letter-spacing:0px;word-spacing:0px;fill:#000000;fill-opacity:1;stroke:none;-inkscape-font-specification:'Nimbus Sans Narrow';font-stretch:normal;font-variant:normal;"><flowRegion
         id="flowRegion1481"
         style="-inkscape-font-specification:'Nimbus Sans Narrow';font-family:'Nimbus Sans Narrow';font-weight:normal;font-style:normal;font-stretch:normal;font-variant:normal;"><rect
           id="rect1483"
           width="701.44995"
           height="222.03152"
           x="803.27332"
           y="-291.27332"
           style="-inkscape-font-specification:'Nimbus Sans Narrow';font-family:'Nimbus Sans Narrow';font-weight:normal;font-style:normal;font-stretch:normal;font-variant:normal;" /></flowRegion><flowPara
         id="flowPara1485">asdfasdfasdfasdf</flowPara></flowRoot>    <path
       inkscape:connector-curvature="0"
       style="opacity:1;fill:#ffffff;fill-opacity:1;stroke-width:0.46015158"
       d="M 870.45999,36.78056 A 106.38953,105.93809 0 0 1 976.84957,142.71909 106.38953,105.93809 0 0 1 870.45999,248.65682 106.38953,105.93809 0 0 1 764.07048,142.71909 106.38953,105.93809 0 0 1 870.45999,36.78056 Z m -19.92085,26.148853 c -1.81012,0.05186 -3.71667,1.131681 -5.45031,3.150223 -0.87572,1.019609 -3.98438,4.473467 -6.90779,7.675554 -17.47654,19.142336 -19.59176,21.528141 -19.96527,22.510667 -0.50812,1.336588 -0.38831,3.064837 0.31437,4.516273 0.79133,1.63471 7.28455,7.48911 8.97661,8.0936 1.48932,0.53209 2.15791,0.52693 3.71968,-0.0297 0.69245,-0.24675 1.50712,-0.71161 1.81045,-1.03276 0.90606,-0.9595 7.81102,-8.551409 14.00149,-15.393921 3.18874,-3.524628 7.52402,-8.301731 9.63412,-10.615918 4.36165,-4.783445 4.92324,-5.587609 5.20427,-7.461594 0.34022,-2.268736 -0.56967,-3.735194 -4.47759,-7.215503 -1.88882,-1.682185 -3.90338,-3.311753 -4.4768,-3.621754 -0.75746,-0.409508 -1.56049,-0.598762 -2.38323,-0.575234 z m 76.08232,16.517206 c -0.11527,-0.115278 -3.21385,2.790692 -6.88468,6.458416 -3.67088,3.667795 -6.8192,6.668298 -6.99579,6.668298 -0.32292,0 -1.21627,-2.253601 -3.25638,-8.212951 -0.60647,-1.771508 -1.1765,-3.426654 -1.2665,-3.677696 -0.0992,-0.276714 -0.27959,-0.340294 -0.45838,-0.161248 -0.28982,0.290293 -3.22757,15.653022 -3.22757,16.878457 0,0.344655 0.29232,0.783371 0.64931,0.974393 0.81307,0.435133 0.88007,0.276219 1.75206,-4.164928 0.36245,-1.846333 0.80828,-3.406356 0.99075,-3.466211 0.32275,-0.105613 1.45564,2.508155 2.57338,5.937497 0.3031,0.93005 0.71569,1.683411 0.91674,1.674712 0.20108,-0.01179 2.68418,-2.32199 5.51865,-5.140924 4.28506,-4.261629 5.16902,-5.005726 5.24373,-4.413424 0.0495,0.391827 -0.41401,4.191708 -1.02951,8.443342 -0.62101,4.290158 -0.9957,7.853328 -0.84268,8.007198 0.15417,0.15488 2.38653,-0.16549 5.05535,-0.72583 5.14776,-1.08033 6.05918,-1.18618 5.73754,-0.66576 -0.11387,0.18435 -2.2603,1.86897 -4.76977,3.74356 -2.50948,1.8746 -4.60766,3.59564 -4.66197,3.82421 -0.0613,0.25861 0.56531,0.60843 1.65988,0.92661 0.96732,0.28124 1.83653,0.51104 1.93061,0.51104 0.0941,0 0.57849,0.16149 1.07723,0.358 0.84252,0.33226 0.86107,0.37603 0.26254,0.6213 -0.35432,0.14498 -1.44102,0.277 -2.41536,0.29216 -1.92423,0.0299 -2.4748,0.23894 -2.5832,0.98342 -0.21122,1.44991 -0.2926,1.43963 6.9316,0.91595 2.12583,-0.15417 5.31398,-0.38728 7.08554,-0.51767 1.79169,-0.13201 3.21472,-0.37959 3.20697,-0.55877 -0.007,-0.17728 -2.23145,-1.21361 -4.9426,-2.30259 -2.71108,-1.08894 -5.06996,-2.11982 -5.24128,-2.29106 -0.20038,-0.20038 1.9337,-2.18385 5.99019,-5.56797 5.36966,-4.4797 6.76672,-5.782832 6.20252,-5.782832 -0.0542,0 -3.78437,0.575282 -8.2887,1.278032 -4.75711,0.74225 -8.30883,1.15825 -8.47462,0.9925 -0.16573,-0.16573 0.35366,-4.758342 1.23934,-10.957466 0.83863,-5.869603 1.43055,-10.766204 1.31506,-10.881718 z m -64.96111,1.179277 c -0.12212,-0.0024 -0.21995,0.03678 -0.31434,0.104669 -0.31396,0.224898 -4.82121,5.114285 -10.016,10.86524 -5.19484,5.75093 -10.64065,11.766225 -12.10218,13.366985 -1.46151,1.60078 -2.65726,3.08803 -2.65726,3.30579 0,0.21782 2.68078,2.82723 5.95807,5.79838 3.27736,2.9712 5.95179,5.61911 5.94328,5.88486 -0.0118,0.26573 -1.16325,1.71358 -2.56594,3.21684 l -2.55026,2.73303 -0.94639,-0.5588 c -2.17085,-1.28234 -2.35452,-1.15766 -9.00459,6.12432 -5.24803,5.74662 -22.47922,24.74397 -32.1588,35.45466 -2.65304,2.93567 -3.00538,3.46555 -3.00538,4.51873 0,1.31094 0.75301,2.14509 6.96785,7.71756 3.05221,2.73673 4.23287,3.28769 5.47912,2.55769 0.63898,-0.37432 5.4299,-5.47934 12.03217,-12.82058 1.5058,-1.67434 4.33282,-4.78882 6.28147,-6.92092 1.94869,-2.13208 6.07969,-6.68688 9.17987,-10.12133 3.10017,-3.43441 7.14171,-7.88421 8.98161,-9.88925 1.83983,-2.00498 3.6876,-4.1099 4.10642,-4.67755 0.94049,-1.27475 0.97689,-2.80127 0.0938,-3.92381 l -0.66741,-0.84843 2.65894,-2.89921 c 1.46214,-1.59444 2.76881,-2.8984 2.90331,-2.8984 0.1346,0 1.30766,0.9784 2.60785,2.1742 8.09762,7.44693 9.63464,8.77666 10.13863,8.77666 0.15583,0 0.83776,-0.66347 1.51587,-1.47471 0.67809,-0.81126 2.99216,-3.39511 5.1417,-5.74164 11.6298,-12.69547 18.09121,-19.96918 18.17629,-20.46157 0.0632,-0.36493 -1.46613,-1.9697 -4.49244,-4.71626 -2.52308,-2.28986 -6.41691,-5.83085 -8.65323,-7.86811 -2.23625,-2.03726 -5.36023,-4.875809 -6.9423,-6.30865 -1.58206,-1.432864 -4.89228,-4.443952 -7.35541,-6.690504 -3.21407,-2.931454 -4.20505,-3.764261 -4.73437,-3.779749 z m 39.70598,28.410324 c -0.8933,-0.0118 -1.79847,0.15064 -2.50754,0.48719 -0.60546,0.2873 -2.22112,1.77229 -3.59047,3.30079 -1.36929,1.52853 -4.01776,4.44586 -5.88564,6.48312 -1.86795,2.03724 -4.04304,4.43481 -4.83311,5.32771 -0.79007,0.89287 -4.45013,4.93351 -8.13313,8.97909 -3.68298,4.04557 -6.91679,7.78305 -7.18669,8.30507 -0.26995,0.52206 -0.49846,1.50107 -0.50779,2.17586 -0.0337,2.44231 0.54713,3.34266 4.48669,6.95137 2.06121,1.88816 4.06724,3.55419 4.45706,3.70243 1.4253,0.54185 2.8976,0.6168 4.02329,0.20415 1.59072,-0.5832 2.17861,-1.04587 4.18796,-3.29669 2.79553,-3.13157 10.13781,-11.24398 13.98338,-15.44983 8.58616,-9.39072 11.63334,-12.85118 12.14737,-13.79493 0.74737,-1.37218 0.73488,-3.96961 -0.0257,-5.21662 -0.76784,-1.25912 -6.80791,-6.87973 -8.1792,-7.61138 -0.66208,-0.35322 -1.54345,-0.53629 -2.43675,-0.54723 z m 35.21517,80.32706 h -43.48328 -88.62718 l -1.51587,0.74723 c -2.90512,1.43088 -4.83776,4.45842 -4.8611,7.61464 -0.0262,3.56291 1.9465,6.65214 5.17796,8.10594 l 1.70017,0.76451 88.37704,-0.002 43.23226,-0.001 1.62205,-0.75546 v -0.001 c 1.93205,-0.89969 4.07513,-3.21512 4.60185,-4.97301 0.86166,-2.87598 0.22325,-6.34028 -1.56934,-8.51496 -0.53016,-0.64315 -1.79449,-1.577 -2.80952,-2.07545 z"
       id="path836" />
    <text
       xml:space="preserve"
       style="font-style:normal;font-weight:normal;font-size:55.96483612px;line-height:1.25;font-family:sans-serif;letter-spacing:0px;word-spacing:0px;fill:#000000;fill-opacity:1;stroke:none;stroke-width:1.39912093"
       x="11.35302"
       y="377.65179"
       id="text2089"
       transform="scale(0.85940414,1.1635969)"><tspan
         sodipodi:role="line"
         id="tspan2087"
         x="11.35302"
         y="377.65179"
         style="font-style:normal;font-variant:normal;font-weight:bold;font-stretch:normal;font-size:119.44100189px;font-family:'digital geometric';-inkscape-font-specification:'digital geometric Bold';fill:#000000;stroke-width:1.39912093"><tspan
   style="fill:#800000"
   id="tspan2091">M</tspan><tspan
   style="fill:#ff0000"
   id="tspan2093">o</tspan><tspan
   style="fill:#808000"
   id="tspan2095">r</tspan><tspan
   style="fill:#008000"
   id="tspan2097">e</tspan> <tspan
   style="fill:#00ff00"
   id="tspan2099">T</tspan><tspan
   style="fill:#008080"
   id="tspan2101">h</tspan><tspan
   style="fill:#00ffff"
   id="tspan2105">a</tspan><tspan
   style="fill:#000080"
   id="tspan2107">n</tspan> <tspan
   style="fill:#0000ff"
   id="tspan2109">T</tspan><tspan
   style="fill:#800080"
   id="tspan2111">o</tspan><tspan
   style="fill:#ff00ff"
   id="tspan2113">y</tspan><tspan
   style="fill:#2b0000"
   id="tspan2115">s</tspan></tspan></text>
  </g>
</svg>
