<?xml version="1.0" encoding="UTF-8" standalone="no"?>
<!-- Created with Inkscape (http://www.inkscape.org/) -->

<svg
   xmlns:dc="http://purl.org/dc/elements/1.1/"
   xmlns:cc="http://creativecommons.org/ns#"
   xmlns:rdf="http://www.w3.org/1999/02/22-rdf-syntax-ns#"
   xmlns:svg="http://www.w3.org/2000/svg"
   xmlns="http://www.w3.org/2000/svg"
   xmlns:sodipodi="http://sodipodi.sourceforge.net/DTD/sodipodi-0.dtd"
   xmlns:inkscape="http://www.inkscape.org/namespaces/inkscape"
   width="1024px"
   height="512px"
   viewBox="0 0 1024 512"
   version="1.1"
   id="SVGRoot"
   inkscape:version="0.92.5 (2060ec1f9f, 2020-04-08)"
   sodipodi:docname="logo1.svg"
   inkscape:export-filename="/home/kokoro/Documentos/Proyectos/React/Proyecto Ciclo 4A/SubastasPhillips/assets/icons/Phillips.png"
   inkscape:export-xdpi="1024"
   inkscape:export-ydpi="1024">
  <defs
     id="defs909" />
  <sodipodi:namedview
     id="base"
     pagecolor="#ffffff"
     bordercolor="#666666"
     borderopacity="1.0"
     inkscape:pageopacity="0.0"
     inkscape:pageshadow="2"
     inkscape:zoom="0.70710678"
     inkscape:cx="547.08275"
     inkscape:cy="343.64308"
     inkscape:document-units="px"
     inkscape:current-layer="layer1"
     showgrid="false"
     inkscape:window-width="1920"
     inkscape:window-height="1043"
     inkscape:window-x="1920"
     inkscape:window-y="0"
     inkscape:window-maximized="1" />
  <metadata
     id="metadata912">
    <rdf:RDF>
      <cc:Work
         rdf:about="">
        <dc:format>image/svg+xml</dc:format>
        <dc:type
           rdf:resource="http://purl.org/dc/dcmitype/StillImage" />
        <dc:title />
      </cc:Work>
    </rdf:RDF>
  </metadata>
  <g
     inkscape:label="Capa 1"
     inkscape:groupmode="layer"
     id="layer1">
    <rect
       style="opacity:1;fill:#1a1a1a;fill-opacity:1"
       id="rect1465"
       width="975.80737"
       height="241.83052"
       x="21.556351"
       y="31.267893" />
    <text
       xml:space="preserve"
       style="font-style:normal;font-weight:normal;font-size:118.88796997px;line-height:1.25;font-family:sans-serif;letter-spacing:0px;word-spacing:0px;fill:#000000;fill-opacity:1;stroke:none;stroke-width:2.9721992"
       x="23.787273"
       y="230.21388"
       id="text1469"
       transform="scale(1.0817046,0.92446681)"><tspan
         sodipodi:role="line"
         id="tspan1467"
         x="23.787273"
         y="230.21388"
         style="font-style:normal;font-variant:normal;font-weight:normal;font-stretch:normal;font-size:285.33114624px;font-family:Keraleeyam;-inkscape-font-specification:Keraleeyam;fill:#ffffff;stroke-width:2.9721992">Phillips</tspan></text>
    <text
       xml:space="preserve"
       style="font-style:normal;font-weight:normal;font-size:40px;line-height:1.25;font-family:'Nimbus Sans Narrow';letter-spacing:0px;word-spacing:0px;fill:#000000;fill-opacity:1;stroke:none;-inkscape-font-specification:'Nimbus Sans Narrow';font-stretch:normal;font-variant:normal;"
       x="982.87842"
       y="-188.03571"
       id="text1477"><tspan
         sodipodi:role="line"
         id="tspan1475"
         x="982.87842"
         y="-188.03571">A</tspan></text>
    <flowRoot
       xml:space="preserve"
       id="flowRoot1479"
       style="font-style:normal;font-weight:normal;font-size:40px;line-height:1.25;font-family:'Nimbus Sans Narrow';letter-spacing:0px;word-spacing:0px;fill:#000000;fill-opacity:1;stroke:none;-inkscape-font-specification:'Nimbus Sans Narrow';font-stretch:normal;font-variant:normal;"><flowRegion
         id="flowRegion1481"
         style="-inkscape-font-specification:'Nimbus Sans Narrow';font-family:'Nimbus Sans Narrow';font-weight:normal;font-style:normal;font-stretch:normal;font-variant:normal;"><rect
           id="rect1483"
           width="701.44995"
           height="222.03152"
           x="803.27332"
           y="-291.27332"
           style="-inkscape-font-specification:'Nimbus Sans Narrow';font-family:'Nimbus Sans Narrow';font-weight:normal;font-style:normal;font-stretch:normal;font-variant:normal;" /></flowRegion><flowPara
         id="flowPara1485">asdfasdfasdfasdf</flowPara></flowRoot>    <path
       inkscape:connector-curvature="0"
       style="opacity:1;fill:#ffffff;fill-opacity:1;stroke-width:0.46015158"
       d="M 860.45999,44.78056 A 106.38953,105.93809 0 0 1 966.84957,150.71909 106.38953,105.93809 0 0 1 860.45999,256.65682 106.38953,105.93809 0 0 1 754.07048,150.71909 106.38953,105.93809 0 0 1 860.45999,44.78056 Z m -19.92085,26.148853 c -1.81012,0.05186 -3.71667,1.131681 -5.45031,3.150223 -0.87572,1.019609 -3.98438,4.473467 -6.90779,7.675554 -17.47654,19.14234 -19.59176,21.52814 -19.96527,22.51067 -0.50812,1.33659 -0.38831,3.06483 0.31437,4.51627 0.79133,1.63471 7.28455,7.48911 8.97661,8.0936 1.48932,0.53209 2.15791,0.52693 3.71968,-0.0297 0.69245,-0.24675 1.50712,-0.71161 1.81045,-1.03276 0.90606,-0.9595 7.81102,-8.55141 14.00149,-15.39392 3.18874,-3.524629 7.52402,-8.301732 9.63412,-10.615919 4.36165,-4.783445 4.92324,-5.587609 5.20427,-7.461594 0.34022,-2.268736 -0.56967,-3.735194 -4.47759,-7.215503 -1.88882,-1.682185 -3.90338,-3.311753 -4.4768,-3.621754 -0.75746,-0.409508 -1.56049,-0.598762 -2.38323,-0.575234 z m 76.08232,16.517206 c -0.11527,-0.115278 -3.21385,2.790692 -6.88468,6.458416 -3.67088,3.667795 -6.8192,6.668295 -6.99579,6.668295 -0.32292,0 -1.21627,-2.253598 -3.25638,-8.212948 -0.60647,-1.771508 -1.1765,-3.426654 -1.2665,-3.677696 -0.0992,-0.276714 -0.27959,-0.340294 -0.45838,-0.161248 -0.28982,0.290293 -3.22757,15.653022 -3.22757,16.878452 0,0.34466 0.29232,0.78338 0.64931,0.9744 0.81307,0.43513 0.88007,0.27622 1.75206,-4.16493 0.36245,-1.84633 0.80828,-3.406356 0.99075,-3.466211 0.32275,-0.105613 1.45564,2.508151 2.57338,5.937501 0.3031,0.93005 0.71569,1.68341 0.91674,1.67471 0.20108,-0.0118 2.68418,-2.32199 5.51865,-5.14093 4.28506,-4.261625 5.16902,-5.005722 5.24373,-4.41342 0.0495,0.391827 -0.41401,4.19171 -1.02951,8.44334 -0.62101,4.29016 -0.9957,7.85333 -0.84268,8.0072 0.15417,0.15488 2.38653,-0.16549 5.05535,-0.72583 5.14776,-1.08033 6.05918,-1.18618 5.73754,-0.66576 -0.11387,0.18435 -2.2603,1.86897 -4.76977,3.74356 -2.50948,1.8746 -4.60766,3.59564 -4.66197,3.82421 -0.0613,0.25861 0.56531,0.60843 1.65988,0.92661 0.96732,0.28124 1.83653,0.51104 1.93061,0.51104 0.0941,0 0.57849,0.16149 1.07723,0.358 0.84252,0.33226 0.86107,0.37603 0.26254,0.6213 -0.35432,0.14498 -1.44102,0.277 -2.41536,0.29216 -1.92423,0.0299 -2.4748,0.23894 -2.5832,0.98342 -0.21122,1.44991 -0.2926,1.43963 6.9316,0.91595 2.12583,-0.15417 5.31398,-0.38728 7.08554,-0.51767 1.79169,-0.13201 3.21472,-0.37959 3.20697,-0.55877 -0.007,-0.17728 -2.23145,-1.21361 -4.9426,-2.30259 -2.71108,-1.08894 -5.06996,-2.11982 -5.24128,-2.29106 -0.20038,-0.20038 1.9337,-2.18385 5.99019,-5.56797 5.36966,-4.4797 6.76672,-5.78283 6.20252,-5.78283 -0.0542,0 -3.78437,0.57528 -8.2887,1.27803 -4.75711,0.74225 -8.30883,1.15825 -8.47462,0.9925 -0.16573,-0.16573 0.35366,-4.75834 1.23934,-10.957466 0.83863,-5.869603 1.43055,-10.766204 1.31506,-10.881718 z m -64.96111,1.179277 c -0.12212,-0.0024 -0.21995,0.03678 -0.31434,0.104669 -0.31396,0.224898 -4.82121,5.114285 -10.016,10.86524 -5.19484,5.750925 -10.64065,11.766225 -12.10218,13.366985 -1.46151,1.60078 -2.65726,3.08803 -2.65726,3.30579 0,0.21782 2.68078,2.82723 5.95807,5.79838 3.27736,2.9712 5.95179,5.61911 5.94328,5.88486 -0.0118,0.26573 -1.16325,1.71358 -2.56594,3.21684 l -2.55026,2.73303 -0.94639,-0.5588 c -2.17085,-1.28234 -2.35452,-1.15766 -9.00459,6.12432 -5.24803,5.74662 -22.47922,24.74397 -32.1588,35.45466 -2.65304,2.93567 -3.00538,3.46555 -3.00538,4.51873 0,1.31094 0.75301,2.14509 6.96785,7.71756 3.05221,2.73673 4.23287,3.28769 5.47912,2.55769 0.63898,-0.37432 5.4299,-5.47934 12.03217,-12.82058 1.5058,-1.67434 4.33282,-4.78882 6.28147,-6.92092 1.94869,-2.13208 6.07969,-6.68688 9.17987,-10.12133 3.10017,-3.43441 7.14171,-7.88421 8.98161,-9.88925 1.83983,-2.00498 3.6876,-4.1099 4.10642,-4.67755 0.94049,-1.27475 0.97689,-2.80127 0.0938,-3.92381 l -0.66741,-0.84843 2.65894,-2.89921 c 1.46214,-1.59444 2.76881,-2.8984 2.90331,-2.8984 0.1346,0 1.30766,0.9784 2.60785,2.1742 8.09762,7.44693 9.63464,8.77666 10.13863,8.77666 0.15583,0 0.83776,-0.66347 1.51587,-1.47471 0.67809,-0.81126 2.99216,-3.39511 5.1417,-5.74164 11.6298,-12.69547 18.09121,-19.96918 18.17629,-20.46157 0.0632,-0.36493 -1.46613,-1.9697 -4.49244,-4.71626 -2.52308,-2.28986 -6.41691,-5.83085 -8.65323,-7.86811 -2.23625,-2.03726 -5.36023,-4.87581 -6.9423,-6.30865 -1.58206,-1.432864 -4.89228,-4.443952 -7.35541,-6.690504 -3.21407,-2.931454 -4.20505,-3.764261 -4.73437,-3.779749 z m 39.70598,28.410324 c -0.8933,-0.0118 -1.79847,0.15064 -2.50754,0.48719 -0.60546,0.2873 -2.22112,1.77229 -3.59047,3.30079 -1.36929,1.52853 -4.01776,4.44586 -5.88564,6.48312 -1.86795,2.03724 -4.04304,4.43481 -4.83311,5.32771 -0.79007,0.89287 -4.45013,4.93351 -8.13313,8.97909 -3.68298,4.04557 -6.91679,7.78305 -7.18669,8.30507 -0.26995,0.52206 -0.49846,1.50107 -0.50779,2.17586 -0.0337,2.44231 0.54713,3.34266 4.48669,6.95137 2.06121,1.88816 4.06724,3.55419 4.45706,3.70243 1.4253,0.54185 2.8976,0.6168 4.02329,0.20415 1.59072,-0.5832 2.17861,-1.04587 4.18796,-3.29669 2.79553,-3.13157 10.13781,-11.24398 13.98338,-15.44983 8.58616,-9.39072 11.63334,-12.85118 12.14737,-13.79493 0.74737,-1.37218 0.73488,-3.96961 -0.0257,-5.21662 -0.76784,-1.25912 -6.80791,-6.87973 -8.1792,-7.61138 -0.66208,-0.35322 -1.54345,-0.53629 -2.43675,-0.54723 z m 35.21517,80.32706 h -43.48328 -88.62718 l -1.51587,0.74723 c -2.90512,1.43088 -4.83776,4.45842 -4.8611,7.61464 -0.0262,3.56291 1.9465,6.65214 5.17796,8.10594 l 1.70017,0.76451 88.37704,-0.002 43.23226,-0.001 1.62205,-0.75546 v -0.001 c 1.93205,-0.89969 4.07513,-3.21512 4.60185,-4.97301 0.86166,-2.87598 0.22325,-6.34028 -1.56934,-8.51496 -0.53016,-0.64315 -1.79449,-1.577 -2.80952,-2.07545 z"
       id="path836" />
    <path
       style="opacity:1;fill:#1a1a1a;fill-opacity:1"
       d="M 31.554234,309.58542 V 439.9487 h 16.833984 v -62.40234 l 19.09375,62.40234 h 18.167969 l 19.296873,-62.54102 v 62.54102 h 16.62891 V 309.58542 H 107.7183 L 76.616734,410.48581 45.515171,309.58542 Z m 352.904296,0 v 22.6543 h 20.93945 V 439.9487 h 16.73243 V 332.23972 h 20.93945 v -22.6543 z m 65.79688,0 V 439.9487 h 16.83398 v -56.8418 c 0,-3.05759 0.44437,-5.93021 1.33399,-8.61718 0.88962,-2.77962 2.08825,-5.18818 3.59375,-7.22657 1.50551,-2.03839 3.24984,-3.66072 5.23437,-4.86523 2.05296,-1.2045 4.24362,-1.80664 6.57031,-1.80664 2.32669,0 4.48228,0.60214 6.4668,1.80664 2.05297,1.20451 3.83044,2.82684 5.33594,4.86523 1.57394,2.03839 2.80569,4.44695 3.69531,7.22657 0.88961,2.68697 1.33594,5.55959 1.33594,8.61718 v 56.8418 h 16.6289 v -56.8418 c 0,-6.20783 -0.89069,-12.04513 -2.66992,-17.51172 -1.7108,-5.46659 -4.10611,-10.23962 -7.18554,-14.3164 -3.01101,-4.16943 -6.5679,-7.41217 -10.67383,-9.72852 -4.03749,-2.40901 -8.34865,-3.61328 -12.9336,-3.61328 -3.07944,0 -6.0224,0.55612 -8.82812,1.66797 -2.80571,1.0192 -5.44075,2.45551 -7.9043,4.30859 v -34.32812 z m 286.79883,0 v 22.6543 h 20.93945 V 439.9487 h 16.73242 V 332.23972 h 20.93945 v -22.6543 z m -565.48829,28.35156 c -5.20084,-1e-5 -10.09278,1.34429 -14.67773,4.03125 -4.51651,2.68697 -8.4866,6.34581 -11.9082,10.97852 -3.4216,4.54005 -6.12485,9.91521 -8.10938,16.12304 -1.98453,6.20782 -2.97656,12.83134 -2.97656,19.87305 0,7.04172 0.99203,13.66718 2.97656,19.875 1.98453,6.20783 4.68778,11.62706 8.10938,16.25977 3.4216,4.54005 7.39169,8.15482 11.9082,10.84179 4.58495,2.68697 9.47689,4.0293 14.67773,4.0293 5.20084,0 10.09474,-1.34233 14.67969,-4.0293 4.58494,-2.68697 8.55308,-6.30174 11.90625,-10.84179 3.4216,-4.63271 6.12485,-10.05194 8.10938,-16.25977 1.98453,-6.20782 2.97656,-12.83328 2.97656,-19.875 0,-7.04171 -0.99203,-13.66523 -2.97656,-19.87305 -1.98453,-6.20783 -4.68778,-11.58299 -8.10938,-16.12304 -3.35317,-4.63271 -7.32131,-8.29155 -11.90625,-10.97852 -4.58495,-2.68696 -9.47885,-4.03125 -14.67969,-4.03125 z m 87.76368,0 c -5.20084,-1e-5 -10.0928,1.34429 -14.67774,4.03125 -4.58495,2.59432 -8.58816,6.20714 -12.00976,10.83985 -3.4216,4.54005 -6.12485,9.91521 -8.10938,16.12304 -1.98453,6.20782 -2.97656,12.83134 -2.97656,19.87305 v 51.14453 h 16.83398 v -51.14453 c 0,-3.89147 0.54766,-7.55032 1.64258,-10.97852 1.09491,-3.42821 2.59953,-6.39287 4.51563,-8.89453 1.9161,-2.59432 4.13988,-4.63276 6.67187,-6.11523 2.53198,-1.48246 5.23523,-2.22461 8.10938,-2.22461 z m 42.90625,0 c -5.20084,-1e-5 -10.0928,1.34429 -14.67774,4.03125 -4.58495,2.68697 -8.58816,6.34581 -12.00976,10.97852 -3.4216,4.54005 -6.12485,9.91521 -8.10938,16.12304 -1.98453,6.20782 -2.97656,12.83134 -2.97656,19.87305 0,7.04172 0.99203,13.66718 2.97656,19.875 1.98453,6.11518 4.68778,11.48838 8.10938,16.12109 3.4216,4.6327 7.42481,8.2935 12.00976,10.98047 4.58494,2.68697 9.4769,4.0293 14.67774,4.0293 4.37965,0 8.65768,-1.01825 12.83203,-3.05664 v -25.71094 c -1.77923,1.85308 -3.76331,3.33542 -5.95313,4.44727 -2.1214,1.11185 -4.41535,1.66797 -6.8789,1.66797 -3.01101,0 -5.81561,-0.74214 -8.41602,-2.22461 -2.53199,-1.57512 -4.72264,-3.65959 -6.57031,-6.25391 -1.84766,-2.68697 -3.31915,-5.69765 -4.41407,-9.0332 -1.02647,-3.4282 -1.53906,-7.04298 -1.53906,-10.8418 0,-3.89147 0.51259,-7.55031 1.53906,-10.97852 1.09492,-3.4282 2.56641,-6.43889 4.41407,-9.0332 1.9161,-2.59432 4.13988,-4.63276 6.67187,-6.11523 2.53198,-1.57512 5.30345,-2.36328 8.31446,-2.36328 4.03749,0 7.69963,1.43632 10.98437,4.30859 3.28473,2.77963 5.81647,6.43847 7.5957,10.97852 h -29.35742 v 22.79296 h 47.73242 c 1.09491,-8.06091 0.85519,-15.75064 -0.71875,-23.07031 -1.50551,-7.31968 -4.00411,-13.75912 -7.49414,-19.31836 -3.4216,-5.55925 -7.62946,-9.96022 -12.625,-13.20312 -4.99554,-3.33555 -10.36889,-5.00391 -16.11718,-5.00391 z m 265.14062,0 c -5.26927,-1e-5 -10.19631,1.34429 -14.78125,4.03125 -4.58495,2.68697 -8.58816,6.34581 -12.00977,10.97852 -3.35316,4.54005 -6.02132,9.91521 -8.00585,16.12304 -1.98453,6.20782 -2.97852,12.83134 -2.97852,19.87305 0,7.04172 0.99399,13.66718 2.97852,19.875 1.98453,6.11518 4.65269,11.48838 8.00585,16.12109 3.42161,4.6327 7.42482,8.2935 12.00977,10.98047 4.58494,2.68697 9.51198,4.0293 14.78125,4.0293 2.12139,0 4.20876,-0.23009 6.26172,-0.69336 2.05297,-0.55592 4.03702,-1.29806 5.95312,-2.22461 v -25.29492 c -1.7108,1.76043 -3.62664,3.15073 -5.74804,4.16992 -2.05296,0.92655 -4.20855,1.39063 -6.4668,1.39063 -2.87415,0 -5.61052,-0.74214 -8.21094,-2.22461 -2.53199,-1.57512 -4.75772,-3.61358 -6.67382,-6.11524 -1.9161,-2.59432 -3.42071,-5.60499 -4.51563,-9.0332 -1.09491,-3.4282 -1.64258,-7.08899 -1.64258,-10.98047 0,-3.89147 0.54767,-7.55031 1.64258,-10.97852 1.09492,-3.52085 2.59952,-6.5795 4.51563,-9.17382 1.91609,-2.59431 4.14183,-4.63278 6.67382,-6.11524 2.60042,-1.48247 5.33679,-2.22265 8.21094,-2.22265 2.87414,0 5.5423,0.74018 8.00586,2.22265 2.53198,1.48246 4.75577,3.52093 6.67188,6.11524 1.91609,2.59432 3.42266,5.65296 4.51757,9.17382 1.09491,3.42821 1.64258,7.08705 1.64258,10.97852 v 51.00586 h 16.73047 v -51.00586 c 0,-7.04171 -0.99203,-13.66523 -2.97656,-19.87305 -1.98453,-6.20783 -4.68778,-11.58299 -8.10938,-16.12304 -3.35317,-4.63271 -7.3213,-8.29155 -11.90625,-10.97852 -4.51652,-2.68696 -9.37534,-4.03125 -14.57617,-4.03125 z m 87.45508,0 c -4.58494,0 -8.92924,1.20427 -13.03516,3.61328 -4.03749,2.31635 -7.56125,5.55909 -10.57226,9.72852 -3.01101,4.07678 -5.40631,8.84981 -7.18555,14.3164 -1.77923,5.46659 -2.66992,11.30389 -2.66992,17.51172 v 56.8418 h 16.83398 v -56.8418 c 0,-3.05759 0.41123,-5.97624 1.23242,-8.75586 0.88962,-2.77963 2.08824,-5.19012 3.59375,-7.22851 1.5055,-2.03839 3.24985,-3.65878 5.23438,-4.86328 2.05297,-1.2045 4.24167,-1.80664 6.56836,-1.80664 2.32669,0 4.51734,0.60214 6.57031,1.80664 2.05296,1.2045 3.83238,2.82489 5.33789,4.86328 1.5055,2.03839 2.70219,4.44888 3.5918,7.22851 0.88962,2.77962 1.33594,5.69827 1.33594,8.75586 v 56.8418 h 16.73046 v -56.8418 c 0,-6.20783 -0.88873,-12.04513 -2.66796,-17.51172 -1.7108,-5.46659 -4.1061,-10.23962 -7.18555,-14.3164 -3.01101,-4.16943 -6.56985,-7.41217 -10.67578,-9.72852 -4.03749,-2.40901 -8.38373,-3.61328 -13.03711,-3.61328 z m 170.80664,0 c -5.20083,-1e-5 -10.09278,1.34429 -14.67774,4.03125 -4.51651,2.68697 -8.4866,6.34581 -11.9082,10.97852 -3.42161,4.54005 -6.12484,9.91521 -8.10937,16.12304 -1.98453,6.20782 -2.97657,12.83134 -2.97657,19.87305 0,7.04172 0.99204,13.66718 2.97657,19.875 1.98453,6.20783 4.68776,11.62706 8.10937,16.25977 3.4216,4.54005 7.39168,8.15482 11.9082,10.84179 4.58495,2.68697 9.47691,4.0293 14.67774,4.0293 5.20084,0 10.09474,-1.34233 14.67969,-4.0293 4.58495,-2.68697 8.55308,-6.30174 11.90625,-10.84179 3.4216,-4.63271 6.12484,-10.05194 8.10937,-16.25977 1.98453,-6.20782 2.97656,-12.83328 2.97656,-19.875 0,-7.04171 -0.99203,-13.66523 -2.97656,-19.87305 -1.98453,-6.20783 -4.68777,-11.58299 -8.10937,-16.12304 -3.35317,-4.63271 -7.3213,-8.29155 -11.90625,-10.97852 -4.58495,-2.68696 -9.47885,-4.03125 -14.67969,-4.03125 z m 40.75195,0 30.17774,92.14453 -2.36133,8.89453 c -1.36864,5.28128 -3.62557,9.49819 -6.77344,12.64844 -3.07945,3.15024 -6.57007,5.09471 -10.4707,5.83594 v 22.79297 h 0.20508 c 3.6269,-0.37062 7.11753,-1.43488 10.4707,-3.19531 3.42161,-1.66778 6.56922,-3.93827 9.44336,-6.81055 2.87415,-2.87228 5.40587,-6.30104 7.5957,-10.28516 2.18982,-3.98413 3.93417,-8.43113 5.23438,-13.34179 l 29.35742,-108.6836 H 921.4097 l -16.52734,61.42969 -20.2207,-61.42969 z m 99.87696,0 c -2.87415,0 -5.61248,0.74215 -8.21289,2.22461 -2.53199,1.48247 -4.75579,3.52092 -6.67188,6.11523 -1.84767,2.59432 -3.35227,5.60501 -4.51562,9.03321 -1.09491,3.4282 -1.64258,7.089 -1.64258,10.98047 0,3.61351 0.47749,6.80827 1.43554,9.58789 0.95805,2.77962 2.18982,5.23613 3.69532,7.36719 1.57394,2.03838 3.32022,3.8448 5.23632,5.41992 1.9161,1.57512 3.79687,2.96542 5.64454,4.16992 1.84767,1.20451 3.55888,2.31674 5.13281,3.33594 1.57394,1.0192 2.84078,1.99143 3.79883,2.91796 0.95805,1.01919 1.74348,2.22348 2.35937,3.61329 0.68432,1.38981 1.02735,2.96418 1.02735,4.72461 0,2.68697 -0.71919,5.00347 -2.15626,6.94921 -1.43706,1.94573 -3.14632,2.91993 -5.13085,2.91993 -1.98453,0 -3.69575,-0.9742 -5.13282,-2.91993 -1.36864,-1.94574 -2.05273,-4.26224 -2.05273,-6.94921 h -16.73242 c 0,4.4474 0.61587,8.6643 1.84765,12.64843 1.30021,3.98412 3.01143,7.45889 5.13282,10.42383 2.18983,2.87227 4.72156,5.1888 7.5957,6.94922 2.94258,1.66778 6.05706,2.5 9.3418,2.5 3.28474,0 6.39727,-0.83222 9.33984,-2.5 2.94258,-1.76042 5.4743,-4.07695 7.5957,-6.94922 2.18982,-2.96494 3.90104,-6.43971 5.13281,-10.42383 1.30021,-3.98413 1.95118,-8.20103 1.95118,-12.64843 0,-5.83721 -0.82248,-10.6083 -2.46485,-14.31446 -1.57394,-3.70617 -3.62621,-6.81084 -6.1582,-9.3125 -2.53198,-2.50166 -5.33853,-4.63215 -8.41797,-6.39258 -3.01101,-1.85308 -5.98711,-3.84552 -8.92969,-5.97656 -1.50551,-1.0192 -2.25781,-2.73161 -2.25781,-5.14062 0,-1.57512 0.40929,-2.9194 1.23047,-4.03125 0.82119,-1.2045 1.81518,-1.80664 2.97852,-1.80664 1.16335,0 2.1885,0.60214 3.07812,1.80664 0.88961,1.11185 1.33399,2.45613 1.33399,4.03125 h 16.63085 c 0,-3.89147 -0.54766,-7.55227 -1.64257,-10.98047 -1.09491,-3.4282 -2.60148,-6.43889 -4.51758,-9.03321 -1.91609,-2.59431 -4.17497,-4.63276 -6.77539,-6.11523 -2.53198,-1.48246 -5.23327,-2.22461 -8.10742,-2.22461 z m -794.70118,22.6543 c 2.87415,0 5.5774,0.74215 8.10938,2.22461 2.53199,1.48247 4.75577,3.52091 6.67187,6.11523 1.9161,2.59431 3.42266,5.605 4.51758,9.0332 1.09491,3.4282 1.64063,7.08705 1.64063,10.97852 0,3.89148 -0.54572,7.55227 -1.64063,10.98047 -1.09492,3.42821 -2.60148,6.43888 -4.51758,9.0332 -1.9161,2.59431 -4.13988,4.63277 -6.67187,6.11524 -2.53198,1.48247 -5.23523,2.22461 -8.10938,2.22461 -2.87415,0 -5.57738,-0.74214 -8.10937,-2.22461 -2.53198,-1.48247 -4.75578,-3.52093 -6.67188,-6.11524 -1.84767,-2.59432 -3.31915,-5.60499 -4.41406,-9.0332 -1.09492,-3.4282 -1.64258,-7.08899 -1.64258,-10.98047 0,-3.89147 0.54766,-7.55031 1.64258,-10.97852 1.09491,-3.4282 2.56639,-6.43889 4.41406,-9.0332 1.9161,-2.59432 4.1399,-4.63276 6.67188,-6.11523 2.53199,-1.48246 5.23522,-2.22461 8.10937,-2.22461 z m 654.07227,0 c 2.87415,0 5.57738,0.74215 8.10937,2.22461 2.53199,1.48247 4.75579,3.52091 6.67188,6.11523 1.9161,2.59431 3.42267,5.605 4.51758,9.0332 1.09492,3.4282 1.64258,7.08705 1.64258,10.97852 0,3.89148 -0.54766,7.55227 -1.64258,10.98047 -1.09491,3.42821 -2.60148,6.43888 -4.51758,9.0332 -1.91609,2.59431 -4.13989,4.63277 -6.67188,6.11524 -2.53199,1.48247 -5.23522,2.22461 -8.10937,2.22461 -2.87414,0 -5.57739,-0.74214 -8.10938,-2.22461 -2.53199,-1.48247 -4.75577,-3.52093 -6.67187,-6.11524 -1.84766,-2.59432 -3.31915,-5.60499 -4.41406,-9.0332 -1.09491,-3.4282 -1.64258,-7.08899 -1.64258,-10.98047 0,-3.89147 0.54767,-7.55031 1.64258,-10.97852 1.09491,-3.4282 2.5664,-6.43889 4.41406,-9.0332 1.9161,-2.59432 4.13988,-4.63276 6.67187,-6.11523 2.53199,-1.48246 5.23524,-2.22461 8.10938,-2.22461 z m -654.07227,12.78711 c -1.57394,0 -3.04542,0.41611 -4.41406,1.25 -1.36864,0.83389 -2.56532,1.94612 -3.5918,3.33593 -1.02648,1.38982 -1.84896,3.05818 -2.46484,5.00391 -0.61589,1.85309 -0.92383,3.84357 -0.92383,5.97461 0,2.13105 0.30794,4.12347 0.92383,5.97656 0.61588,1.85308 1.43836,3.47543 2.46484,4.86524 1.02648,1.38981 2.22316,2.50009 3.5918,3.33398 1.36864,0.83388 2.84012,1.25196 4.41406,1.25196 1.57394,0 3.04543,-0.41808 4.41407,-1.25196 1.43707,-0.83389 2.66883,-1.94417 3.69531,-3.33398 1.02648,-1.38981 1.84701,-3.01216 2.46289,-4.86524 0.61589,-1.85309 0.92383,-3.84551 0.92383,-5.97656 0,-2.13104 -0.30794,-4.12152 -0.92383,-5.97461 -0.61588,-1.94573 -1.43641,-3.61409 -2.46289,-5.00391 -1.02648,-1.38981 -2.25824,-2.50204 -3.69531,-3.33593 -1.36864,-0.83389 -2.84013,-1.25 -4.41407,-1.25 z m 654.07227,0 c -1.57393,0 -3.04542,0.41611 -4.41406,1.25 -1.36864,0.83389 -2.56532,1.94612 -3.5918,3.33593 -1.02649,1.38982 -1.847,3.05818 -2.46289,5.00391 -0.61588,1.85309 -0.92383,3.84357 -0.92383,5.97461 0,2.13105 0.30795,4.12347 0.92383,5.97656 0.61589,1.85308 1.4364,3.47543 2.46289,4.86524 1.02648,1.38981 2.22316,2.50009 3.5918,3.33398 1.36864,0.83388 2.84013,1.25196 4.41406,1.25196 1.57394,0 3.04542,-0.41808 4.41406,-1.25196 1.43707,-0.83389 2.66883,-1.94417 3.69531,-3.33398 1.02648,-1.38981 1.847,-3.01216 2.46289,-4.86524 0.61589,-1.85309 0.92383,-3.84551 0.92383,-5.97656 0,-2.13104 -0.30793,-4.12152 -0.92383,-5.97461 -0.61588,-1.94573 -1.43641,-3.61409 -2.46289,-5.00391 -1.02648,-1.38981 -2.25824,-2.50204 -3.69531,-3.33593 -1.36864,-0.83389 -2.84012,-1.25 -4.41406,-1.25 z"
       id="rect830"
       inkscape:connector-curvature="0" />
  </g>
</svg>
