<?xml version="1.0" encoding="UTF-8" standalone="no"?>
<!-- Created with Inkscape (http://www.inkscape.org/) -->

<svg
   xmlns:dc="http://purl.org/dc/elements/1.1/"
   xmlns:cc="http://creativecommons.org/ns#"
   xmlns:rdf="http://www.w3.org/1999/02/22-rdf-syntax-ns#"
   xmlns:svg="http://www.w3.org/2000/svg"
   xmlns="http://www.w3.org/2000/svg"
   xmlns:sodipodi="http://sodipodi.sourceforge.net/DTD/sodipodi-0.dtd"
   xmlns:inkscape="http://www.inkscape.org/namespaces/inkscape"
   width="1024px"
   height="512px"
   viewBox="0 0 1024 512"
   version="1.1"
   id="SVGRoot"
   sodipodi:docname="logo2.svg">
  <defs
     id="defs909" />
  <sodipodi:namedview
     id="base"
     pagecolor="#ffffff"
     bordercolor="#666666"
     borderopacity="1.0"
     inkscape:pageopacity="0.0"
     inkscape:pageshadow="2"
     inkscape:zoom="1"
     inkscape:cx="514.48584"
     inkscape:cy="193.35274"
     inkscape:document-units="px"
     inkscape:current-layer="layer1"
     showgrid="false"
     inkscape:window-width="1920"
     inkscape:window-height="1016"
     inkscape:window-x="0"
     inkscape:window-y="27"
     inkscape:window-maximized="1" />
  <metadata
     id="metadata912">
    <rdf:RDF>
      <cc:Work
         rdf:about="">
        <dc:format>image/svg+xml</dc:format>
        <dc:type
           rdf:resource="http://purl.org/dc/dcmitype/StillImage" />
      </cc:Work>
    </rdf:RDF>
  </metadata>
  <g
     inkscape:label="Capa 1"
     inkscape:groupmode="layer"
     id="layer1">
    <rect
       style="opacity:1;fill:#000000;fill-opacity:1"
       id="rect1465"
       width="975.80737"
       height="241.83052"
       x="15.55635"
       y="21.267893" />
    <text
       xml:space="preserve"
       style="font-style:normal;font-weight:normal;font-size:118.88796997px;line-height:1.25;font-family:sans-serif;letter-spacing:0px;word-spacing:0px;fill:#000000;fill-opacity:1;stroke:none;stroke-width:2.9721992"
       x="18.240471"
       y="219.39685"
       id="text1469"
       transform="scale(1.0817046,0.92446685)"><tspan
         sodipodi:role="line"
         id="tspan1467"
         x="18.240471"
         y="219.39685"
         style="font-style:normal;font-variant:normal;font-weight:normal;font-stretch:normal;font-size:285.33114624px;font-family:Keraleeyam;-inkscape-font-specification:Keraleeyam;fill:#ffffff;stroke-width:2.9721992">Phillips</tspan></text>
    <text
       transform="scale(0.85940413,1.1635969)"
       id="text1473"
       y="376.79239"
       x="21.825392"
       style="font-style:normal;font-weight:normal;font-size:55.96483612px;line-height:1.25;font-family:sans-serif;letter-spacing:0px;word-spacing:0px;fill:#000000;fill-opacity:1;stroke:none;stroke-width:1.39912093"
       xml:space="preserve"><tspan
         style="font-style:normal;font-variant:normal;font-weight:bold;font-stretch:normal;font-size:119.44100189px;font-family:'digital geometric';-inkscape-font-specification:'digital geometric Bold';fill:#000000;stroke-width:1.39912093"
         y="376.79239"
         x="21.825392"
         id="tspan1471"
         sodipodi:role="line">More Than Toys</tspan></text>
    <text
       xml:space="preserve"
       style="font-style:normal;font-weight:normal;font-size:40px;line-height:1.25;font-family:'Nimbus Sans Narrow';letter-spacing:0px;word-spacing:0px;fill:#000000;fill-opacity:1;stroke:none;-inkscape-font-specification:'Nimbus Sans Narrow';font-stretch:normal;font-variant:normal;"
       x="982.87842"
       y="-188.03571"
       id="text1477"><tspan
         sodipodi:role="line"
         id="tspan1475"
         x="982.87842"
         y="-188.03571">A</tspan></text>
    <flowRoot
       xml:space="preserve"
       id="flowRoot1479"
       style="font-style:normal;font-weight:normal;font-size:40px;line-height:1.25;font-family:'Nimbus Sans Narrow';letter-spacing:0px;word-spacing:0px;fill:#000000;fill-opacity:1;stroke:none;-inkscape-font-specification:'Nimbus Sans Narrow';font-stretch:normal;font-variant:normal;"><flowRegion
         id="flowRegion1481"
         style="-inkscape-font-specification:'Nimbus Sans Narrow';font-family:'Nimbus Sans Narrow';font-weight:normal;font-style:normal;font-stretch:normal;font-variant:normal;"><rect
           id="rect1483"
           width="701.44995"
           height="222.03152"
           x="803.27332"
           y="-291.27332"
           style="-inkscape-font-specification:'Nimbus Sans Narrow';font-family:'Nimbus Sans Narrow';font-weight:normal;font-style:normal;font-stretch:normal;font-variant:normal;" /></flowRegion><flowPara
         id="flowPara1485">asdfasdfasdfasdf</flowPara></flowRoot>    <path
       inkscape:connector-curvature="0"
       style="opacity:1;fill:#ffffff;fill-opacity:1;stroke-width:0.46015158"
       d="M 870.45999,36.78056 A 106.38953,105.93809 0 0 1 976.84957,142.71909 106.38953,105.93809 0 0 1 870.45999,248.65682 106.38953,105.93809 0 0 1 764.07048,142.71909 106.38953,105.93809 0 0 1 870.45999,36.78056 Z m -19.92085,26.148853 c -1.81012,0.05186 -3.71667,1.131681 -5.45031,3.150223 -0.87572,1.019609 -3.98438,4.473467 -6.90779,7.675554 -17.47654,19.142336 -19.59176,21.528141 -19.96527,22.510667 -0.50812,1.336588 -0.38831,3.064837 0.31437,4.516273 0.79133,1.63471 7.28455,7.48911 8.97661,8.0936 1.48932,0.53209 2.15791,0.52693 3.71968,-0.0297 0.69245,-0.24675 1.50712,-0.71161 1.81045,-1.03276 0.90606,-0.9595 7.81102,-8.551409 14.00149,-15.393921 3.18874,-3.524628 7.52402,-8.301731 9.63412,-10.615918 4.36165,-4.783445 4.92324,-5.587609 5.20427,-7.461594 0.34022,-2.268736 -0.56967,-3.735194 -4.47759,-7.215503 -1.88882,-1.682185 -3.90338,-3.311753 -4.4768,-3.621754 -0.75746,-0.409508 -1.56049,-0.598762 -2.38323,-0.575234 z m 76.08232,16.517206 c -0.11527,-0.115278 -3.21385,2.790692 -6.88468,6.458416 -3.67088,3.667795 -6.8192,6.668298 -6.99579,6.668298 -0.32292,0 -1.21627,-2.253601 -3.25638,-8.212951 -0.60647,-1.771508 -1.1765,-3.426654 -1.2665,-3.677696 -0.0992,-0.276714 -0.27959,-0.340294 -0.45838,-0.161248 -0.28982,0.290293 -3.22757,15.653022 -3.22757,16.878457 0,0.344655 0.29232,0.783371 0.64931,0.974393 0.81307,0.435133 0.88007,0.276219 1.75206,-4.164928 0.36245,-1.846333 0.80828,-3.406356 0.99075,-3.466211 0.32275,-0.105613 1.45564,2.508155 2.57338,5.937497 0.3031,0.93005 0.71569,1.683411 0.91674,1.674712 0.20108,-0.01179 2.68418,-2.32199 5.51865,-5.140924 4.28506,-4.261629 5.16902,-5.005726 5.24373,-4.413424 0.0495,0.391827 -0.41401,4.191708 -1.02951,8.443342 -0.62101,4.290158 -0.9957,7.853328 -0.84268,8.007198 0.15417,0.15488 2.38653,-0.16549 5.05535,-0.72583 5.14776,-1.08033 6.05918,-1.18618 5.73754,-0.66576 -0.11387,0.18435 -2.2603,1.86897 -4.76977,3.74356 -2.50948,1.8746 -4.60766,3.59564 -4.66197,3.82421 -0.0613,0.25861 0.56531,0.60843 1.65988,0.92661 0.96732,0.28124 1.83653,0.51104 1.93061,0.51104 0.0941,0 0.57849,0.16149 1.07723,0.358 0.84252,0.33226 0.86107,0.37603 0.26254,0.6213 -0.35432,0.14498 -1.44102,0.277 -2.41536,0.29216 -1.92423,0.0299 -2.4748,0.23894 -2.5832,0.98342 -0.21122,1.44991 -0.2926,1.43963 6.9316,0.91595 2.12583,-0.15417 5.31398,-0.38728 7.08554,-0.51767 1.79169,-0.13201 3.21472,-0.37959 3.20697,-0.55877 -0.007,-0.17728 -2.23145,-1.21361 -4.9426,-2.30259 -2.71108,-1.08894 -5.06996,-2.11982 -5.24128,-2.29106 -0.20038,-0.20038 1.9337,-2.18385 5.99019,-5.56797 5.36966,-4.4797 6.76672,-5.782832 6.20252,-5.782832 -0.0542,0 -3.78437,0.575282 -8.2887,1.278032 -4.75711,0.74225 -8.30883,1.15825 -8.47462,0.9925 -0.16573,-0.16573 0.35366,-4.758342 1.23934,-10.957466 0.83863,-5.869603 1.43055,-10.766204 1.31506,-10.881718 z m -64.96111,1.179277 c -0.12212,-0.0024 -0.21995,0.03678 -0.31434,0.104669 -0.31396,0.224898 -4.82121,5.114285 -10.016,10.86524 -5.19484,5.75093 -10.64065,11.766225 -12.10218,13.366985 -1.46151,1.60078 -2.65726,3.08803 -2.65726,3.30579 0,0.21782 2.68078,2.82723 5.95807,5.79838 3.27736,2.9712 5.95179,5.61911 5.94328,5.88486 -0.0118,0.26573 -1.16325,1.71358 -2.56594,3.21684 l -2.55026,2.73303 -0.94639,-0.5588 c -2.17085,-1.28234 -2.35452,-1.15766 -9.00459,6.12432 -5.24803,5.74662 -22.47922,24.74397 -32.1588,35.45466 -2.65304,2.93567 -3.00538,3.46555 -3.00538,4.51873 0,1.31094 0.75301,2.14509 6.96785,7.71756 3.05221,2.73673 4.23287,3.28769 5.47912,2.55769 0.63898,-0.37432 5.4299,-5.47934 12.03217,-12.82058 1.5058,-1.67434 4.33282,-4.78882 6.28147,-6.92092 1.94869,-2.13208 6.07969,-6.68688 9.17987,-10.12133 3.10017,-3.43441 7.14171,-7.88421 8.98161,-9.88925 1.83983,-2.00498 3.6876,-4.1099 4.10642,-4.67755 0.94049,-1.27475 0.97689,-2.80127 0.0938,-3.92381 l -0.66741,-0.84843 2.65894,-2.89921 c 1.46214,-1.59444 2.76881,-2.8984 2.90331,-2.8984 0.1346,0 1.30766,0.9784 2.60785,2.1742 8.09762,7.44693 9.63464,8.77666 10.13863,8.77666 0.15583,0 0.83776,-0.66347 1.51587,-1.47471 0.67809,-0.81126 2.99216,-3.39511 5.1417,-5.74164 11.6298,-12.69547 18.09121,-19.96918 18.17629,-20.46157 0.0632,-0.36493 -1.46613,-1.9697 -4.49244,-4.71626 -2.52308,-2.28986 -6.41691,-5.83085 -8.65323,-7.86811 -2.23625,-2.03726 -5.36023,-4.875809 -6.9423,-6.30865 -1.58206,-1.432864 -4.89228,-4.443952 -7.35541,-6.690504 -3.21407,-2.931454 -4.20505,-3.764261 -4.73437,-3.779749 z m 39.70598,28.410324 c -0.8933,-0.0118 -1.79847,0.15064 -2.50754,0.48719 -0.60546,0.2873 -2.22112,1.77229 -3.59047,3.30079 -1.36929,1.52853 -4.01776,4.44586 -5.88564,6.48312 -1.86795,2.03724 -4.04304,4.43481 -4.83311,5.32771 -0.79007,0.89287 -4.45013,4.93351 -8.13313,8.97909 -3.68298,4.04557 -6.91679,7.78305 -7.18669,8.30507 -0.26995,0.52206 -0.49846,1.50107 -0.50779,2.17586 -0.0337,2.44231 0.54713,3.34266 4.48669,6.95137 2.06121,1.88816 4.06724,3.55419 4.45706,3.70243 1.4253,0.54185 2.8976,0.6168 4.02329,0.20415 1.59072,-0.5832 2.17861,-1.04587 4.18796,-3.29669 2.79553,-3.13157 10.13781,-11.24398 13.98338,-15.44983 8.58616,-9.39072 11.63334,-12.85118 12.14737,-13.79493 0.74737,-1.37218 0.73488,-3.96961 -0.0257,-5.21662 -0.76784,-1.25912 -6.80791,-6.87973 -8.1792,-7.61138 -0.66208,-0.35322 -1.54345,-0.53629 -2.43675,-0.54723 z m 35.21517,80.32706 h -43.48328 -88.62718 l -1.51587,0.74723 c -2.90512,1.43088 -4.83776,4.45842 -4.8611,7.61464 -0.0262,3.56291 1.9465,6.65214 5.17796,8.10594 l 1.70017,0.76451 88.37704,-0.002 43.23226,-0.001 1.62205,-0.75546 v -0.001 c 1.93205,-0.89969 4.07513,-3.21512 4.60185,-4.97301 0.86166,-2.87598 0.22325,-6.34028 -1.56934,-8.51496 -0.53016,-0.64315 -1.79449,-1.577 -2.80952,-2.07545 z"
       id="path836" />
    <text
       xml:space="preserve"
       style="font-style:normal;font-weight:normal;font-size:55.96483612px;line-height:1.25;font-family:sans-serif;letter-spacing:0px;word-spacing:0px;fill:#000000;fill-opacity:1;stroke:none;stroke-width:1.39912093"
       x="12.516628"
       y="377.65179"
       id="text2089"
       transform="scale(0.85940414,1.1635969)"><tspan
         sodipodi:role="line"
         id="tspan2087"
         x="12.516628"
         y="377.65179"
         style="font-style:normal;font-variant:normal;font-weight:bold;font-stretch:normal;font-size:119.44100189px;font-family:'digital geometric';-inkscape-font-specification:'digital geometric Bold';fill:#000000;stroke-width:1.39912093"><tspan
   style="fill:#800000"
   id="tspan2091">M</tspan><tspan
   style="fill:#ff0000"
   id="tspan2093">o</tspan><tspan
   style="fill:#808000"
   id="tspan2095">r</tspan><tspan
   style="fill:#008000"
   id="tspan2097">e</tspan> <tspan
   style="fill:#00ff00"
   id="tspan2099">T</tspan><tspan
   style="fill:#008080"
   id="tspan2101">h</tspan><tspan
   style="fill:#00ffff"
   id="tspan2105">a</tspan><tspan
   style="fill:#000080"
   id="tspan2107">n</tspan> <tspan
   style="fill:#0000ff"
   id="tspan2109">T</tspan><tspan
   style="fill:#800080"
   id="tspan2111">o</tspan><tspan
   style="fill:#ff00ff"
   id="tspan2113">y</tspan><tspan
   style="fill:#2b0000"
   id="tspan2115">s</tspan></tspan></text>
    <path
       style="opacity:1;fill:#ff0000;fill-opacity:1"
       d="m 688.66653,-204.94034 c -0.42994,-1.75908 -1.8855,-3.39793 -4.22244,-4.67024 -1.18043,-0.6427 -5.20879,-2.95728 -8.95225,-5.14502 -22.37872,-13.07865 -25.15414,-14.64882 -26.19311,-14.80822 -1.41336,-0.21684 -3.07752,0.26231 -4.34955,1.25346 -1.43267,1.11622 -5.79706,8.69178 -6.03367,10.47293 -0.20829,1.56774 -0.0634,2.22149 0.80809,3.632 0.38634,0.62539 1.012,1.32461 1.38956,1.55393 1.12802,0.68495 9.99677,5.84701 17.98429,10.46669 4.11443,2.37962 9.69469,5.61641 12.39957,7.1949 5.59102,3.26279 6.49451,3.64438 8.38579,3.52659 2.28967,-0.1426 3.53214,-1.34027 6.11656,-5.89056 1.24917,-2.19931 2.42186,-4.51058 2.60486,-5.13622 0.24174,-0.82645 0.25767,-1.65068 0.0623,-2.45024 z m -0.21274,77.8541 c 0.0886,-0.13686 -3.4007,-2.55829 -7.75604,-5.37932 -4.35542,-2.82107 -7.95053,-5.27092 -7.98752,-5.44359 -0.0677,-0.31576 1.94885,-1.66086 7.34859,-4.90412 1.60515,-0.96412 3.10438,-1.86739 3.331,-2.00799 0.24979,-0.15497 0.27489,-0.34544 0.0624,-0.48275 -0.34457,-0.22258 -15.98249,0.12234 -17.18073,0.37905 -0.33701,0.0722 -0.70473,0.45105 -0.81673,0.84013 -0.25515,0.88619 -0.0847,0.91807 4.44059,0.84035 1.88129,-0.0324 3.50057,0.0761 3.59731,0.24201 0.17088,0.29346 -2.14738,1.94959 -5.26648,3.76094 -0.84592,0.49121 -1.49733,1.05197 -1.4467,1.24674 0.0537,0.19415 2.83266,2.13911 6.18284,4.32015 5.06474,3.29722 5.97821,4.00595 5.41471,4.20309 -0.37277,0.13048 -4.18582,0.47159 -8.47205,0.76042 -4.32506,0.29151 -7.88807,0.67257 -8.00647,0.85443 -0.11915,0.1832 0.66234,2.2981 1.76934,4.79033 2.13475,4.80721 2.4296,5.67691 1.85333,5.47143 -0.2041,-0.0727 -2.30152,-1.81826 -4.66022,-3.87935 -2.35871,-2.06109 -4.48114,-3.75231 -4.71601,-3.75753 -0.26572,-0.006 -0.47565,0.68032 -0.55747,1.81726 -0.0724,1.00477 -0.11581,1.90207 -0.0961,1.99407 0.0197,0.092 -0.036,0.60023 -0.12364,1.12907 -0.14839,0.89343 -0.18727,0.91989 -0.55248,0.38603 -0.21599,-0.31609 -0.57366,-1.35149 -0.7926,-2.30103 -0.43234,-1.87527 -0.75276,-2.36849 -1.50343,-2.31852 -1.46199,0.0972 -1.46905,0.0155 0.5564,6.96973 0.59609,2.04636 1.49381,5.11493 1.99243,6.81986 0.50442,1.72428 1.04446,3.06397 1.21804,3.01886 0.17188,-0.044 0.7192,-2.43695 1.21606,-5.31607 0.49684,-2.87904 1.01045,-5.40242 1.142,-5.60581 0.15396,-0.23791 2.53896,1.43367 6.69778,4.69121 5.50518,4.31207 7.07255,5.40566 6.95437,4.85397 -0.0114,-0.053 -1.35471,-3.58037 -2.98547,-7.83754 -1.72234,-4.49606 -2.87285,-7.88188 -2.74551,-8.07871 0.12733,-0.19678 4.72661,-0.65005 10.97373,-1.08267 5.91503,-0.40959 10.82602,-0.85701 10.91478,-0.99413 z m -14.76018,-63.2728 c -0.0236,-0.11983 -0.0829,-0.2073 -0.16901,-0.28538 -0.28568,-0.25988 -6.01071,-3.64248 -12.7223,-7.51725 -6.71158,-3.87481 -13.73431,-7.939 -15.60573,-9.03276 -1.87143,-1.09373 -3.5772,-1.95214 -3.79013,-1.90652 -0.21299,0.0456 -2.20124,3.21415 -4.41991,7.04114 -2.2187,3.82708 -4.24748,6.99693 -4.50912,7.04428 -0.2623,0.0441 -1.9193,-0.77893 -3.68306,-1.83558 l -3.20805,-1.92136 0.34816,-1.04136 c 0.79912,-2.39131 0.6397,-2.5463 -7.87381,-7.52332 -6.71851,-3.92773 -28.90436,-16.79618 -41.40515,-24.01721 -3.4263,-1.97919 -4.01913,-2.213 -5.04894,-1.99238 -1.28185,0.27463 -1.93881,1.1864 -6.08569,8.43071 -2.0366,3.55779 -2.32902,4.82728 -1.35414,5.89295 0.49987,0.54639 6.49672,4.1603 15.05817,9.07817 1.95264,1.12163 5.58962,3.23538 8.08263,4.69414 2.493,1.4588 7.81186,4.54383 11.81956,6.85575 4.00765,2.31191 9.20648,5.33018 11.55247,6.70922 2.34592,1.37899 4.7897,2.74615 5.43249,3.03676 1.44349,0.65258 2.94377,0.36833 3.8564,-0.73033 l 0.69083,-0.83113 3.39099,1.99204 c 1.86536,1.09568 3.41436,2.10114 3.44253,2.23266 0.0282,0.13161 -0.68246,1.48311 -1.57936,3.00495 -5.58534,9.47799 -6.56423,11.25966 -6.45865,11.75247 0.0326,0.15237 0.8241,0.67996 1.7594,1.17308 0.93531,0.49309 3.94732,2.21527 6.69209,3.82554 14.85008,8.71219 23.31526,13.50611 23.81455,13.48615 0.37007,-0.0147 1.61943,-1.8461 3.67107,-5.38063 1.71049,-2.94679 4.35798,-7.49727 5.88155,-10.11076 1.52359,-2.61341 3.64486,-6.26183 4.71448,-8.10896 1.06964,-1.84713 3.31942,-5.71452 5.00013,-8.59363 2.1931,-3.75686 2.79939,-4.90022 2.70364,-5.42104 z m -19.46391,44.77608 c -0.17572,-0.87527 -0.52321,-1.726 -1.00049,-2.34837 -0.40776,-0.53184 -2.19853,-1.80186 -3.97998,-2.82063 -1.78147,-1.01869 -5.18802,-2.99655 -7.57138,-4.3962 -2.38335,-1.39972 -5.18397,-3.02505 -6.22257,-3.61053 -1.03856,-0.5855 -5.75565,-3.31768 -10.48301,-6.07146 -4.72735,-2.75375 -9.06064,-5.13141 -9.62762,-5.28596 -0.56703,-0.1546 -1.57211,-0.17298 -2.23388,-0.0407 -2.39518,0.47868 -3.15376,1.23483 -5.85711,5.84297 -1.41445,2.41102 -2.62206,4.72127 -2.68534,5.13349 -0.23125,1.50719 0.003,2.96285 0.64234,3.97712 0.9035,1.43325 1.47914,1.91068 4.10095,3.40392 3.64771,2.07747 13.11745,7.55658 18.03558,10.43574 10.98105,6.42838 15.00329,8.68407 16.03378,8.98899 1.4983,0.44333 4.03572,-0.11275 5.09573,-1.11769 1.07033,-1.01457 5.30074,-8.09854 5.72889,-9.59268 0.20653,-0.72085 0.20058,-1.62089 0.0245,-2.49606 z"
       id="path2138"
       inkscape:connector-curvature="0"
       sodipodi:nodetypes="cccsccccccsccccccccccccccccccccccccccccccccccccccccccccccccccccscsccccccccccccccccccccccccccccccccccccccc" />
    <rect
       style="opacity:1;fill:#ff0000;fill-opacity:1"
       id="rect2155"
       width="178.89801"
       height="18.031223"
       x="467.39761"
       y="-128.2852" />
    <ellipse
       style="opacity:1;fill:#ff0000;fill-opacity:1;stroke-width:1.10982311"
       id="path2157"
       cx="467.66275"
       cy="-119.35797"
       rx="8.485281"
       ry="8.9272232"
       transform="matrix(1,0,0,1.2317073,0,29.724618)" />
  </g>
</svg>
