<?xml version="1.0" encoding="UTF-8" standalone="no"?>
<!-- Created with Inkscape (http://www.inkscape.org/) -->

<svg
   xmlns:dc="http://purl.org/dc/elements/1.1/"
   xmlns:cc="http://creativecommons.org/ns#"
   xmlns:rdf="http://www.w3.org/1999/02/22-rdf-syntax-ns#"
   xmlns:svg="http://www.w3.org/2000/svg"
   xmlns="http://www.w3.org/2000/svg"
   xmlns:sodipodi="http://sodipodi.sourceforge.net/DTD/sodipodi-0.dtd"
   xmlns:inkscape="http://www.inkscape.org/namespaces/inkscape"
   width="512"
   height="512"
   viewBox="0 0 135.46666 135.46667"
   version="1.1"
   id="svg8"
   inkscape:version="0.92.5 (2060ec1f9f, 2020-04-08)"
   sodipodi:docname="sold.svg">
  <defs
     id="defs2" />
  <sodipodi:namedview
     id="base"
     pagecolor="#ffffff"
     bordercolor="#666666"
     borderopacity="1.0"
     inkscape:pageopacity="0"
     inkscape:pageshadow="2"
     inkscape:zoom="1.4"
     inkscape:cx="156.40973"
     inkscape:cy="264.26196"
     inkscape:document-units="mm"
     inkscape:current-layer="layer1"
     showgrid="false"
     units="px"
     inkscape:pagecheckerboard="true"
     inkscape:window-width="1920"
     inkscape:window-height="1016"
     inkscape:window-x="0"
     inkscape:window-y="27"
     inkscape:window-maximized="1" />
  <metadata
     id="metadata5">
    <rdf:RDF>
      <cc:Work
         rdf:about="">
        <dc:format>image/svg+xml</dc:format>
        <dc:type
           rdf:resource="http://purl.org/dc/dcmitype/StillImage" />
        <dc:title></dc:title>
      </cc:Work>
    </rdf:RDF>
  </metadata>
  <g
     inkscape:label="Capa 1"
     inkscape:groupmode="layer"
     id="layer1"
     transform="translate(0,-161.53332)">
    <path
       style="fill:#000000;stroke-width:0.13531548"
       d=""
       id="path826"
       inkscape:connector-curvature="0" />
    <path
       style="opacity:1;fill:#ffffff;fill-opacity:1;stroke-width:1.09210265"
       d="M 255.78516 4.1425781 A 252.49999 251.42855 0 0 0 3.2851562 255.57227 A 252.49999 251.42855 0 0 0 255.78516 507 A 252.49999 251.42855 0 0 0 508.28516 255.57227 A 252.49999 251.42855 0 0 0 255.78516 4.1425781 z M 303.06445 66.203125 C 307.36045 66.325972 311.88534 68.888971 316 73.679688 C 318.07836 76.09953 325.45623 84.296875 332.39453 91.896484 C 373.87265 137.32799 378.89273 142.99041 379.7793 145.32227 C 380.98531 148.49442 380.70084 152.5962 379.0332 156.04102 C 377.15508 159.92074 361.74438 173.81529 357.72852 175.25 C 354.19375 176.51285 352.60697 176.50052 348.90039 175.17969 C 347.25683 174.59401 345.3234 173.49085 344.60352 172.72852 C 342.45312 170.45131 326.0652 152.43301 311.37305 136.19336 C 303.80496 127.82813 293.51588 116.49038 288.50781 110.99805 C 278.15606 99.645291 276.82322 97.736659 276.15625 93.289062 C 275.34879 87.904445 277.50828 84.424069 286.7832 76.164062 C 291.2661 72.171672 296.04723 68.30412 297.4082 67.568359 C 299.20589 66.596489 301.11173 66.147285 303.06445 66.203125 z M 122.49414 105.4043 C 122.76812 105.13028 130.12174 112.02757 138.83398 120.73242 C 147.54629 129.43732 155.01837 136.55859 155.4375 136.55859 C 156.20384 136.55859 158.32405 131.21 163.16602 117.06641 C 164.60537 112.86195 165.95822 108.93373 166.17188 108.33789 C 166.40734 107.68116 166.83544 107.5303 167.25977 107.95508 C 167.94756 108.64409 174.91992 145.10521 174.91992 148.01367 C 174.91992 148.8316 174.22605 149.87282 173.37891 150.32617 C 171.44916 151.35893 171.29018 150.98179 169.2207 140.44141 C 168.36037 136.05942 167.30231 132.35684 166.86914 132.21484 C 166.10318 131.96388 163.4145 138.16758 160.76172 146.30664 C 160.04227 148.51396 159.06308 150.30196 158.58594 150.28125 C 158.10856 150.25857 152.21539 144.77041 145.48828 138.08008 C 135.31827 127.96572 133.2203 126.19967 133.04297 127.60547 C 132.92546 128.53535 134.02562 137.55384 135.48633 147.64453 C 136.96025 157.8265 137.84953 166.28318 137.48633 166.64844 C 137.12081 167.01543 131.82225 166.25512 125.48828 164.92578 C 113.27082 162.36175 111.10769 162.11052 111.87109 163.3457 C 112.14171 163.78352 117.23544 167.78136 123.19141 172.23047 C 129.14732 176.67954 134.127 180.76424 134.25586 181.30664 C 134.4016 181.92044 132.91422 182.75067 130.31641 183.50586 C 128.02055 184.17329 125.95764 184.71875 125.73438 184.71875 C 125.51123 184.71875 124.36134 185.10163 123.17773 185.56836 C 121.17819 186.35692 121.1341 186.46085 122.55469 187.04297 C 123.3956 187.38766 125.97465 187.70035 128.28711 187.73633 C 132.85396 187.80738 134.1607 188.30346 134.41797 190.07031 C 134.91907 193.51146 135.11238 193.48708 117.9668 192.24414 C 112.92145 191.8779 105.35488 191.32509 101.15039 191.01562 C 96.897935 190.70268 93.520702 190.11469 93.539062 189.68945 C 93.55607 189.26913 98.835059 186.80916 105.26953 184.22461 C 111.70401 181.64013 117.30251 179.19352 117.70898 178.78711 C 118.18466 178.31146 113.11963 173.60399 103.49219 165.57227 C 90.748089 154.94045 87.432352 151.84766 88.771484 151.84766 C 88.900291 151.84766 97.753037 153.21295 108.44336 154.88086 C 119.73376 156.64246 128.16321 157.62974 128.55664 157.23633 C 128.94984 156.84314 127.71725 145.94315 125.61523 131.23047 C 123.62496 117.29985 122.22003 105.67846 122.49414 105.4043 z M 276.66992 108.20312 C 276.95982 108.19464 277.19165 108.29042 277.41602 108.45117 C 278.16111 108.98503 288.85842 120.58924 301.1875 134.23828 C 313.51658 147.88729 326.44149 162.16371 329.91016 165.96289 C 333.37886 169.76203 336.2168 173.29186 336.2168 173.80859 C 336.2168 174.32552 329.8544 180.5187 322.07617 187.57031 C 314.2979 194.622 307.95048 200.90646 307.9707 201.53711 C 307.99338 202.1678 310.73143 205.60408 314.06055 209.17188 L 320.11328 215.6582 L 322.35938 214.33203 C 327.51159 211.28853 327.94743 211.58454 343.73047 228.86719 C 356.18583 242.50592 397.0817 287.59348 420.05469 313.01367 C 426.35127 319.98108 427.1875 321.23858 427.1875 323.73828 C 427.1875 326.84963 425.40037 328.82929 410.65039 342.05469 C 403.40636 348.54996 400.60423 349.8575 397.64648 348.125 C 396.12991 347.23662 384.75935 335.12062 369.08984 317.69727 C 365.51604 313.72351 358.80654 306.33167 354.18164 301.27148 C 349.55675 296.21134 339.75233 285.40116 332.39453 277.25 C 325.03674 269.09892 315.4448 258.53791 311.07812 253.7793 C 306.71145 249.02072 302.32605 244.02502 301.33203 242.67773 C 299.09999 239.65237 299.01359 236.02942 301.10938 233.36523 L 302.69336 231.35156 L 296.38281 224.4707 C 292.91256 220.68653 289.81133 217.5918 289.49219 217.5918 C 289.1732 217.5918 286.38868 219.91394 283.30273 222.75195 C 264.08425 240.42616 260.43634 243.58203 259.24023 243.58203 C 258.87022 243.58203 257.25198 242.0074 255.64258 240.08203 C 254.03318 238.15666 248.54106 232.02425 243.43945 226.45508 C 215.8379 196.32427 200.50257 179.06121 200.30078 177.89258 C 200.15111 177.02639 203.78035 173.21777 210.96289 166.69922 C 216.95106 161.26456 226.19249 152.86054 231.5 148.02539 C 236.80751 143.19028 244.22179 136.4534 247.97656 133.05273 C 251.73137 129.65203 259.58769 122.50565 265.43359 117.17383 C 273.06172 110.21644 275.41369 108.23991 276.66992 108.20312 z M 182.43359 175.63086 C 184.55365 175.60491 186.70193 175.98859 188.38477 176.78711 C 189.82174 177.46897 193.65642 180.99339 196.90625 184.62109 C 200.15611 188.2488 206.44177 195.17266 210.875 200.00781 C 215.30831 204.84292 220.47057 210.53324 222.3457 212.65234 C 224.2208 214.77145 232.90737 224.36138 241.64844 233.96289 C 250.38943 243.56444 258.06445 252.43486 258.70508 253.67383 C 259.34582 254.9128 259.88805 257.23635 259.91016 258.83789 C 259.99028 264.63433 258.61155 266.77119 249.26172 275.33594 C 244.36969 279.81713 239.60871 283.77129 238.68359 284.12305 C 235.3008 285.40918 231.80644 285.58704 229.13477 284.60742 C 225.35947 283.22332 223.96417 282.12515 219.19531 276.7832 C 212.56043 269.35091 195.13465 250.09727 186.00781 240.11523 C 165.62977 217.82774 158.39777 209.61486 157.17773 207.375 C 155.40394 204.11837 155.43366 197.95374 157.23828 194.99414 C 159.06066 192.00578 173.39584 178.66615 176.65039 176.92969 C 178.22171 176.09133 180.31354 175.65681 182.43359 175.63086 z M 98.855469 366.27539 L 202.05664 366.27539 L 412.40039 366.27539 L 415.99805 368.04883 C 422.893 371.44488 427.47979 378.63022 427.53516 386.12109 C 427.59714 394.57714 422.91544 401.90897 415.24609 405.35938 L 411.21094 407.17383 L 201.46094 407.16602 L 98.855469 407.16211 L 95.005859 405.36914 L 95.005859 405.36523 C 90.42037 403.22991 85.334025 397.73468 84.083984 393.5625 C 82.038965 386.73682 83.554048 378.5148 87.808594 373.35352 C 89.066768 371.82712 92.067613 369.61073 94.476562 368.42773 L 98.855469 366.27539 z "
       transform="matrix(0.26458333,0,0,0.26458333,0,161.53332)"
       id="path836" />
    <g
       id="g828"
       transform="translate(-56.269316,-16.657422)"
       style="fill:#ececec" />
  </g>
</svg>
