<?xml version="1.0" encoding="UTF-8" standalone="no"?>
<!-- Created with Inkscape (http://www.inkscape.org/) -->

<svg
   xmlns:dc="http://purl.org/dc/elements/1.1/"
   xmlns:cc="http://creativecommons.org/ns#"
   xmlns:rdf="http://www.w3.org/1999/02/22-rdf-syntax-ns#"
   xmlns:svg="http://www.w3.org/2000/svg"
   xmlns="http://www.w3.org/2000/svg"
   xmlns:sodipodi="http://sodipodi.sourceforge.net/DTD/sodipodi-0.dtd"
   xmlns:inkscape="http://www.inkscape.org/namespaces/inkscape"
   version="1.1"
   id="svg2"
   width="700"
   height="120"
   viewBox="0 0 700 120"
   sodipodi:docname="banner2.svg"
   inkscape:version="0.92.5 (2060ec1f9f, 2020-04-08)">
  <metadata
     id="metadata8">
    <rdf:RDF>
      <cc:Work
         rdf:about="">
        <dc:format>image/svg+xml</dc:format>
        <dc:type
           rdf:resource="http://purl.org/dc/dcmitype/StillImage" />
        <dc:title />
      </cc:Work>
    </rdf:RDF>
  </metadata>
  <defs
     id="defs6" />
  <sodipodi:namedview
     pagecolor="#ffffff"
     bordercolor="#666666"
     borderopacity="1"
     objecttolerance="10"
     gridtolerance="10"
     guidetolerance="10"
     inkscape:pageopacity="0"
     inkscape:pageshadow="2"
     inkscape:window-width="1920"
     inkscape:window-height="1016"
     id="namedview4"
     showgrid="false"
     inkscape:zoom="1.7213"
     inkscape:cx="323.10599"
     inkscape:cy="2.9766188"
     inkscape:window-x="0"
     inkscape:window-y="27"
     inkscape:window-maximized="1"
     inkscape:current-layer="svg2" />
  <path
     style="opacity:1;fill:#000000;fill-opacity:1;stroke:none;stroke-width:1"
     d="M 118.31055,0.046875 V 121.64306 H 592.37109 V 0.046875 Z m 127.70703,16.391574 c 9.26883,0.04241 11.20313,0.253522 17.03906,1.852857 7.98081,2.187144 18.59544,6.553524 25.93359,10.67093 l 5.4336,3.04941 16.05859,-0.314146 c 16.73898,-0.326999 18.94225,-0.03643 18.0586,2.373096 -0.20945,0.571129 -0.0687,2.160753 0.31054,3.533633 0.56411,2.042212 0.19876,3.97789 -2.00586,10.648921 -3.17938,9.620542 -3.26925,10.53591 -1.42578,14.558728 1.37525,3.001064 4.46451,5.003102 5.8418,3.785748 0.31616,-0.27944 2.49729,-6.318224 4.8457,-13.4182 2.34842,-7.099965 4.61533,-13.651264 5.03516,-14.560727 1.07783,-2.33498 5.76193,-5.577816 9.21484,-6.376948 3.06645,-0.709682 31.74015,-0.962135 33.81641,-0.298137 0.93263,0.298268 1.10119,1.002355 0.74609,3.161461 -0.58457,3.55436 0.18497,3.908487 9.55664,4.390028 3.91325,0.201077 7.81298,0.676016 8.66602,1.056488 1.02655,0.457879 1.71358,0.474391 2.03125,0.04602 0.27336,-0.368617 4.1151,-0.648299 8.92578,-0.648299 7.86622,0 8.50868,0.09829 9.34375,1.398645 l 0.89453,1.392644 1.28516,-1.416654 c 1.25277,-1.384166 1.69044,-1.41781 18.68554,-1.446669 9.57193,-0.01628 27.63059,-0.14731 40.12891,-0.292135 13.10436,-0.151843 23.29105,-0.01191 24.0625,0.332154 1.1136,0.496682 1.27853,1.281006 0.98438,4.670158 -0.42114,4.851909 -1.56453,6.486242 -6.06446,8.684012 -2.09516,1.023275 -3.56579,2.269787 -3.87109,3.283517 -0.27085,0.899383 0.12621,4.937772 0.88476,8.970146 1.64457,8.742499 0.99349,11.247275 -3.50195,13.448214 -2.58536,1.265767 -3.96223,1.320458 -35.21875,1.398646 -21.81891,0.05459 -34.6163,-0.175285 -38.86719,-0.696321 -4.38363,-0.537308 -6.77252,-0.57175 -7.74609,-0.114054 -0.77412,0.363928 -6.28254,0.706001 -12.24609,0.758351 -5.96354,0.05235 -15.62389,0.139106 -21.46485,0.19409 l -10.61914,0.09804 -4.86914,3.625675 c -2.6784,1.99374 -5.6779,3.882181 -6.66406,4.195939 -0.98615,0.313749 -4.71397,0.570263 -8.28321,0.570263 -7.84194,0 -9.65781,0.993978 -11.77929,6.450981 -0.98669,2.538056 -1.81949,3.611075 -2.92774,3.769743 -0.85193,0.121982 -3.46772,1.779883 -5.81054,3.683693 -6.2208,5.05507 -11.61354,6.90804 -20.86524,7.16531 -4.74802,0.13205 -9.3452,-0.1563 -12.82031,-0.80236 -12.06283,-2.24267 -25.28268,-7.53777 -38.33789,-15.357097 l -6.58008,-3.941822 -7.74805,-0.354163 c -8.20037,-0.374399 -17.39516,-2.67758 -17.41796,-4.362016 -0.007,-0.462979 0.86084,-3.420514 1.92578,-6.57704 1.06491,-3.156543 1.93554,-6.37161 1.93554,-7.141299 0,-0.769679 -1.54902,-3.473487 -3.4414,-6.006776 -7.4973,-10.036421 -10.81979,-19.197452 -10.34766,-28.521179 0.48473,-9.572624 4.7318,-15.110967 14.5293,-18.940752 3.98797,-1.558917 5.0419,-1.675216 14.75,-1.630754 z m 9.67578,10.957064 c -4.88683,0.03461 -6.18055,0.32752 -8.83398,1.58073 -4.30987,2.035513 -6.25881,4.223511 -6.8086,7.63953 -0.65035,4.040893 0.83803,3.255004 2.53906,-1.340619 l 1.49219,-4.027862 12.00391,0.152071 c 6.6025,0.08287 14.09459,-0.08239 16.65039,-0.366169 l 4.64648,-0.51624 -5.80664,-1.544713 c -4.4672,-1.188047 -7.59844,-1.552161 -13.55469,-1.576728 -0.85928,-0.003 -1.63,-0.0049 -2.32812,0 z m 61.28125,6.761124 c -1.59021,0.01082 -3.58942,0.04829 -6.10547,0.10805 -12.9071,0.306535 -17.12603,1.260683 -21.74609,4.914271 -3.5269,2.789107 -4.84105,5.597755 -10.45508,22.350327 -6.01732,17.955983 -6.14729,16.205986 1.47461,19.707106 4.95299,2.27515 10.70383,2.579739 18.1543,0.962445 4.86438,-1.055916 8.88849,-3.208925 10.98437,-5.874715 0.70063,-0.891134 2.2635,-4.556131 3.47266,-8.145764 1.7058,-5.063905 1.98205,-6.642532 1.22851,-7.041254 -1.73327,-0.917126 -11.91912,-0.624977 -12.91015,0.370171 -0.49485,0.496927 -1.74637,3.464161 -2.7793,6.593047 -2.05909,6.237172 -3.77506,8.656835 -6.76367,9.544411 -2.83909,0.843188 -4.74697,0.09693 -3.74414,-1.464677 0.43264,-0.673728 3.09819,-8.01228 5.92382,-16.307536 5.51432,-16.188533 6.35271,-18.007749 9.01368,-19.561039 2.44733,-1.428587 5.56789,-1.35242 4.99804,0.122057 -0.24009,0.621248 -1.23774,3.537478 -2.21875,6.478994 -1.56144,4.681933 -1.64006,5.424685 -0.62304,5.960754 1.40634,0.741288 10.8409,0.816795 12.19921,0.09804 1.2523,-0.662671 6.63861,-16.710699 6.04297,-18.00432 -0.28968,-0.629123 -1.37585,-0.842839 -6.14648,-0.810373 z m 52.49219,0.012 c -1.5055,0.0098 -3.22632,0.03509 -5.18555,0.06803 -14.42788,0.242598 -16.06146,0.599216 -18.80273,4.085887 -0.68388,0.869834 -3.69427,8.925831 -6.68946,17.902272 -5.11389,15.32609 -5.39166,16.497372 -4.5664,19.224885 0.61745,2.04075 1.82807,3.62383 4.06836,5.32446 l 3.1875,2.421118 h 7.0371 7.03907 l 3.70508,-3.041405 c 2.03797,-1.672903 3.70507,-3.4167 3.70507,-3.87379 0,-0.621794 -1.92953,-0.830383 -7.66211,-0.830383 -5.78765,0 -7.76155,-0.217833 -8.07031,-0.888411 -0.37866,-0.822354 9.46166,-30.363072 10.64649,-31.960769 0.32679,-0.440655 3.31418,-0.714329 7.78906,-0.714329 h 7.26172 l 2.84961,-2.897339 c 4.12302,-4.193313 4.22599,-4.888857 -6.3125,-4.820228 z m -104.60157,0.03602 c -1.92557,-0.0029 -4.06586,0.02021 -6.4414,0.06203 l -11.2168,0.19609 -3.9375,11.445289 c -2.16591,6.29516 -4.14756,11.621503 -4.4043,11.835468 -0.25675,0.213966 -0.86514,-0.230983 -1.35156,-0.988456 -0.66291,-1.032283 -0.66302,-2.26463 0,-4.926276 0.55132,-2.213252 0.61329,-3.843122 0.16406,-4.325999 -0.63685,-0.684549 -7.84996,-8.239244 -8.30664,-8.700021 -0.0978,-0.09868 -1.0967,0.112079 -2.2207,0.468216 -1.65023,0.522889 -2.04297,1.065797 -2.04297,2.821305 0,5.236622 4.90965,13.563219 12.35547,20.953682 2.57559,2.556442 4.68164,4.946117 4.68164,5.310453 0,0.374827 -1.40433,0.586166 -3.23437,0.488226 l -3.23438,-0.172079 -2.16797,6.130833 c -3.23587,9.142743 -3.99359,8.391674 8.44336,8.379872 6.20042,-0.0058 12.51088,-0.373568 15.10547,-0.882407 5.35803,-1.050779 10.17351,-3.571501 11.78516,-6.168851 1.79026,-2.885177 12.13225,-33.569137 12.27148,-36.408824 0.20805,-4.243335 -2.76904,-5.496032 -16.24805,-5.518551 z m -4.11328,5.162385 c 0.44288,-0.0068 1.00644,0.01884 1.72266,0.06203 2.86418,0.172696 3.31987,0.408731 3.5,1.812837 0.35923,2.800154 -10.37928,33.549876 -12.31641,35.268298 -2.16339,1.919167 -7.31698,2.225204 -6.60937,0.39218 2.4537,-6.356121 12.13476,-35.372203 12.13476,-36.368805 0,-0.851251 0.23974,-1.145876 1.56836,-1.16654 z m 233.63867,2.871327 c -14.20142,-0.0088 -14.56757,0.482262 -11.31445,15.118986 1.27097,5.718448 2.10446,10.676064 1.85156,11.017092 -0.2529,0.341034 -1.9844,0.622286 -3.8457,0.622286 -3.41292,0 -5.03524,0.804793 -6.63086,3.289521 -0.44289,0.689658 -0.59375,1.537195 -0.33594,1.884871 0.65664,0.885431 14.13372,0.720898 17.39649,-0.212099 4.33679,-1.240117 4.56158,-2.807836 2.10351,-14.728806 -1.16955,-5.672069 -1.92107,-10.589022 -1.67187,-10.925047 0.24919,-0.336036 1.97124,-0.608281 3.82812,-0.608281 1.85688,0 3.94131,-0.181669 4.63086,-0.402186 1.44728,-0.462844 3.87087,-4.038446 3.14649,-4.642145 -0.26787,-0.223257 -4.38954,-0.411221 -9.15821,-0.414192 z m -24.00781,0.230106 c -1.42401,-0.01279 -2.86229,-0.01296 -4.17383,0.008 -5.84676,0.09515 -6.68592,1.262268 -11.55273,16.063423 -2.36991,7.207489 -4.11353,13.530239 -3.87305,14.052493 0.24046,0.522255 1.23135,1.216746 2.19922,1.540712 2.70602,0.905778 14.03891,0.804 15.46094,-0.138063 1.78384,-1.181759 3.81017,-4.065071 3.20898,-4.566111 -0.28548,-0.237909 -2.72407,-0.434201 -5.42187,-0.434201 -4.50428,0 -4.90625,-0.113095 -4.90625,-1.388641 0,-1.92414 5.39929,-18.11391 6.37109,-19.104828 0.4352,-0.443744 2.46292,-0.804371 4.50586,-0.804371 3.42011,0 3.84831,-0.183727 5.41406,-2.295062 0.93526,-1.261164 1.57412,-2.399036 1.41797,-2.529168 -0.23032,-0.191943 -4.37836,-0.36538 -8.65039,-0.404187 z m -51.07031,0.008 -5.51758,0.188087 -5.51758,0.190088 -4.95703,14.936901 c -2.72666,8.216142 -4.741,15.405309 -4.47851,15.975382 0.50111,1.088274 5.49598,1.465316 7.2207,0.544252 0.48838,-0.260821 1.29538,-1.78408 1.79492,-3.381562 2.27326,-7.269535 4.02241,-11.615367 4.67188,-11.615367 0.74022,-10e-7 1.17234,1.735789 1.96289,7.905652 0.26152,2.041247 0.74674,3.709704 1.07812,3.709715 0.33137,0 2.57288,-2.467053 4.98242,-5.484535 3.84869,-4.819716 5.92497,-6.574203 5.91797,-5.002311 -7.8e-4,0.26625 -0.88125,3.226468 -1.95898,6.57904 -1.07772,3.352572 -1.7877,6.473544 -1.57422,6.937205 0.43574,0.946335 5.64308,1.144479 7.28711,0.276129 0.89289,-0.471608 10.85915,-28.629629 10.93555,-30.896277 0.0196,-0.579267 -1.69726,-0.808374 -6.08985,-0.808374 h -6.11719 l -3.37109,4.942284 c -1.85318,2.718504 -3.71662,4.969548 -4.14258,5.002311 -0.42597,0.03276 -1.079,-2.202391 -1.45117,-4.968295 z m -39.38281,0.01801 -2.11328,1.792828 c -1.71691,1.456412 -2.89172,4.192017 -6.24219,14.546722 -2.26916,7.012846 -3.92219,13.19096 -3.67383,13.730344 0.24836,0.539404 1.24307,1.244749 2.21094,1.568725 2.45814,0.822784 15.85927,0.80624 19.44726,-0.02401 3.75316,-0.868536 4.47584,-2.2068 9.48047,-17.580123 2.84576,-8.74174 3.54347,-11.758072 2.91797,-12.585817 -0.6947,-0.919319 -2.4699,-1.118782 -11.42383,-1.270586 z m 66.78906,0.03602 -1.16797,3.389566 c -5.51831,15.993042 -9.01829,27.284074 -8.68359,28.010944 0.44844,0.973935 5.62141,1.190128 7.29883,0.304141 0.89288,-0.471618 10.85914,-28.629629 10.93554,-30.896277 0.0185,-0.549154 -1.31578,-0.808374 -4.17773,-0.808374 z m -77.72461,5.142376 c -0.88579,-0.02135 -2.11388,0.304166 -3.67383,0.976451 -2.48393,1.070481 -3.24749,2.526349 -7.38086,14.046491 -3.00074,8.363404 -3.16325,9.269258 -1.75,9.744503 1.79841,0.604782 6.68056,0.434099 7.18946,-0.252116 0.98221,-1.324478 7.31326,-20.968869 7.32226,-22.718499 0.006,-1.169338 -0.56818,-1.769436 -1.70703,-1.79683 z m 20.75195,0.104049 c 1.48441,0.02915 2.09464,0.289769 2.37305,0.894413 0.46585,1.011733 -1.44336,7.915877 -4.50586,16.289526 l -1.47656,4.033864 h -3.86524 c -2.38209,0 -4.00621,-0.309202 -4.23046,-0.806372 -0.20014,-0.443754 1.11878,-5.161856 2.92968,-10.486846 l 3.29297,-9.684475 3.68555,-0.19609 c 0.70895,-0.03794 1.30207,-0.05375 1.79687,-0.04402 z m 87.38477,5.382486 c -1.60546,-0.0078 -5.57072,2.119009 -6.08203,3.4616 -1.48999,3.912408 -2.70137,8.696949 -2.32813,9.200251 0.24177,0.326013 3.03351,0.592274 6.20313,0.592274 h 5.76367 l -0.0137,-1.776821 c -0.0195,-2.571233 -2.16502,-10.623088 -3.01953,-11.335238 -0.11614,-0.0968 -0.29408,-0.141091 -0.52344,-0.142066 z M 321.77734,67.704139 c -0.36672,0 -1.08378,0.759584 -1.59179,1.68878 -0.8152,1.49109 -0.7122,1.832922 0.87695,2.905343 2.29657,1.549791 3.17773,1.536603 3.17773,-0.04602 0,-1.609474 -1.59088,-4.548101 -2.46289,-4.548101 z m 9.29297,5.556567 c -0.40693,-0.0738 -0.73696,0.471289 -1.03515,1.602741 -0.55502,2.105922 -1.34858,2.216492 -6.375,0.894413 -2.44506,-0.643115 -2.18593,0.334504 0.96093,3.633679 1.48677,1.558702 2.70499,3.169581 2.70899,3.577653 0.004,0.408072 -1.19869,2.235034 -2.67383,4.061877 -3.06932,3.801103 -2.43005,4.628717 2.30078,2.981377 3.89637,-1.356765 4.59065,-1.282385 5.8125,0.620287 1.48343,2.310013 2.74185,1.59583 2.47266,-1.404649 -0.17165,-1.913192 0.16933,-2.851674 1.35742,-3.747732 2.06214,-1.555289 1.99445,-2.381981 -0.33008,-4.201941 -1.05101,-0.822871 -2.47082,-2.90231 -3.15625,-4.622136 -0.87087,-2.185105 -1.51978,-3.30061 -2.04297,-3.395569 z m -12.90039,5.224414 -5.09765,4.309991 c -2.80341,2.371111 -5.09571,4.447179 -5.09571,4.614133 0,0.672909 6.41109,0.245851 8.80078,-0.586271 1.4057,-0.489478 3.32809,-1.70581 4.26954,-2.703249 l 1.70898,-1.814839 -2.29102,-1.910883 z m -46.48047,1.486687 -2.57226,1.740805 c -1.41593,0.957614 -2.71367,1.820896 -2.88086,1.918886 -0.74007,0.433761 1.98669,2.276215 6.38086,4.311993 12.0407,5.578361 24.19211,8.711109 33.80859,8.716027 l 5.81055,0.002 -5.81055,-1.468679 C 295.66223,92.472232 286.00193,88.479373 276.49414,82.825125 Z"
     id="rect1576"
     inkscape:connector-curvature="0" />
</svg>
