<?xml version="1.0" encoding="UTF-8" standalone="no"?>
<!-- Created with Inkscape (http://www.inkscape.org/) -->

<svg
   xmlns:dc="http://purl.org/dc/elements/1.1/"
   xmlns:cc="http://creativecommons.org/ns#"
   xmlns:rdf="http://www.w3.org/1999/02/22-rdf-syntax-ns#"
   xmlns:svg="http://www.w3.org/2000/svg"
   xmlns="http://www.w3.org/2000/svg"
   xmlns:sodipodi="http://sodipodi.sourceforge.net/DTD/sodipodi-0.dtd"
   xmlns:inkscape="http://www.inkscape.org/namespaces/inkscape"
   version="1.1"
   id="svg2"
   width="700"
   height="120"
   viewBox="0 0 700 120"
   sodipodi:docname="banner4.svg"
   inkscape:version="0.92.5 (2060ec1f9f, 2020-04-08)">
  <metadata
     id="metadata8">
    <rdf:RDF>
      <cc:Work
         rdf:about="">
        <dc:format>image/svg+xml</dc:format>
        <dc:type
           rdf:resource="http://purl.org/dc/dcmitype/StillImage" />
        <dc:title></dc:title>
      </cc:Work>
    </rdf:RDF>
  </metadata>
  <defs
     id="defs6" />
  <sodipodi:namedview
     pagecolor="#ffffff"
     bordercolor="#666666"
     borderopacity="1"
     objecttolerance="10"
     gridtolerance="10"
     guidetolerance="10"
     inkscape:pageopacity="0"
     inkscape:pageshadow="2"
     inkscape:window-width="1920"
     inkscape:window-height="1016"
     id="namedview4"
     showgrid="false"
     inkscape:zoom="1.2171429"
     inkscape:cx="367.38252"
     inkscape:cy="-85.753639"
     inkscape:window-x="0"
     inkscape:window-y="27"
     inkscape:window-maximized="1"
     inkscape:current-layer="svg2" />
  <path
     style="opacity:1;fill:#000000;fill-opacity:1;stroke:none;stroke-width:1"
     d="M 118.31055 0.046875 L 118.31055 121.64258 L 592.37109 121.64258 L 592.37109 0.046875 L 118.31055 0.046875 z M 255.84961 17.148438 L 255.75195 26.609375 C 255.69805 31.812297 255.61206 42.983159 255.56055 51.435547 C 255.50905 59.887934 255.42592 67.595973 255.375 68.5625 L 255.28125 70.318359 L 247.20898 65.320312 L 239.13477 60.322266 L 239.12891 48.779297 C 239.12391 39.048235 239.09077 37.273527 238.92188 37.478516 C 238.77525 37.656487 220.77423 65.561096 219.14062 68.142578 L 218.91016 68.505859 L 229.02148 68.505859 L 239.13477 68.505859 L 239.13477 66.074219 C 239.13477 64.736818 239.16904 63.642578 239.21094 63.642578 C 239.31725 63.642578 257.80282 75.013549 257.85547 75.111328 C 257.89137 75.178128 253.90955 77.197424 240.25391 84.041016 L 238.46484 84.939453 L 238.42578 82.363281 L 238.38477 79.789062 L 225.08789 79.789062 L 211.79297 79.789062 L 203.0332 92.726562 L 194.27539 105.66211 L 192.63281 105.64648 C 191.72921 105.63748 188.07625 105.59363 184.51562 105.54883 C 180.95502 105.50393 176.82493 105.43439 175.33789 105.39453 L 172.63477 105.32227 L 205.27148 61.259766 L 237.90625 17.199219 L 246.87891 17.173828 L 255.84961 17.148438 z M 225.88477 28.310547 L 223.51758 31.492188 C 222.21557 33.242327 221.12888 34.689173 221.10156 34.707031 C 221.07426 34.724891 220.04581 34.873117 218.81836 35.035156 C 202.06268 37.247147 188.49806 44.882688 182.51172 55.472656 C 180.49947 59.032364 179.55664 62.581054 179.55273 66.609375 C 179.54773 71.815921 181.11892 76.276063 184.60352 80.939453 L 185.86328 82.623047 L 183.41797 85.746094 L 180.97266 88.869141 L 179.85742 87.757812 C 168.40032 76.340105 167.09008 61.617739 176.44336 49.394531 C 179.39224 45.540825 182.67782 42.565085 187.41016 39.464844 C 191.1765 36.997441 194.21057 35.424527 198.42578 33.753906 C 206.3313 30.620703 215.0029 28.83297 224.50977 28.376953 L 225.88477 28.310547 z M 270.84766 38.257812 L 278.80273 38.257812 C 283.17817 38.257812 286.75781 38.279611 286.75781 38.306641 C 286.75781 38.333661 285.41595 43.524954 283.77539 49.84375 C 282.13484 56.162541 280.8148 61.37676 280.8418 61.429688 C 280.8687 61.482618 284.11444 56.301386 288.05469 49.916016 L 295.21875 38.304688 L 303.42773 38.28125 C 307.94284 38.26741 311.61541 38.292261 311.58789 38.337891 C 311.56029 38.383511 303.97013 49.69779 294.7207 63.480469 L 277.90234 88.539062 L 269.30859 88.541016 C 262.22679 88.541945 260.71894 88.51938 260.71484 88.412109 C 260.71484 88.260032 270.6381 39.042961 270.76367 38.572266 L 270.84766 38.257812 z M 315.54492 38.257812 L 330.68164 38.257812 L 345.81641 38.257812 L 345.67773 38.572266 C 345.60153 38.746131 344.68068 40.771935 343.63086 43.072266 L 341.72266 47.253906 L 334.61133 47.302734 L 327.5 47.351562 L 325.06641 52.75 C 323.72765 55.719033 322.63104 58.202661 322.62891 58.269531 C 322.62591 58.365071 324.09109 58.390625 329.4707 58.390625 C 333.95931 58.390625 336.31641 58.424151 336.31641 58.488281 C 336.31641 58.542061 335.44496 60.515699 334.38086 62.873047 C 333.31677 65.2304 332.44727 67.176802 332.44727 67.199219 C 332.44727 67.221629 329.31674 67.251685 325.49023 67.265625 L 318.5332 67.291016 L 315.97461 72.931641 C 314.56734 76.034422 313.37738 78.672597 313.33008 78.792969 L 313.24219 79.011719 L 320.55469 79.011719 L 327.86523 79.011719 L 327.7793 79.230469 C 327.7316 79.350841 326.56371 81.485087 325.18359 83.972656 L 322.67383 88.494141 L 307.82422 88.519531 L 292.97461 88.544922 L 293.04492 88.324219 C 293.08392 88.203597 298.05714 77.141015 304.0957 63.740234 C 310.13426 50.339455 315.17922 39.124007 315.30859 38.816406 L 315.54492 38.257812 z M 357.57617 38.257812 L 364.40039 38.257812 L 364.49414 40.275391 C 364.54574 41.385433 364.663 45.575681 364.75586 49.587891 C 364.84876 53.600099 364.96754 57.00355 365.01953 57.150391 C 365.09003 57.349409 366.2125 54.978173 369.42969 47.837891 L 373.74609 38.259766 L 381.44727 38.257812 C 385.68318 38.256993 389.14843 38.289938 389.14648 38.330078 C 389.14448 38.370208 384.06698 49.673971 377.86328 63.449219 L 366.58398 88.494141 L 360.15625 88.519531 L 353.72852 88.544922 L 353.72852 88.132812 C 353.72852 87.49762 352.5565 70.319287 352.44922 69.382812 L 352.35352 68.554688 L 347.77734 78.525391 L 343.19922 88.494141 L 335.7207 88.519531 L 328.24219 88.544922 L 328.32617 88.269531 L 328.32617 88.267578 C 328.37277 88.115445 333.43828 76.827446 339.58203 63.181641 C 345.72577 49.535836 350.75195 38.345759 350.75195 38.314453 C 350.75195 38.283153 353.82325 38.257812 357.57617 38.257812 z M 414.41211 38.257812 C 421.96307 38.256994 428.1396 38.26792 428.13672 38.28125 C 428.13372 38.29464 427.21057 40.318471 426.08594 42.779297 L 424.04102 47.253906 L 415.5625 47.302734 C 409.53092 47.337324 406.9969 47.382754 406.78516 47.462891 C 406.32982 47.635223 405.85563 48.000673 405.66602 48.324219 C 405.22967 49.068837 392.09887 78.334916 392.02539 78.726562 C 391.92157 79.279996 392.23625 79.716846 392.91016 79.957031 C 393.31954 80.102936 393.8829 80.134304 396.68945 80.162109 L 399.98828 80.195312 L 400.36328 79.384766 C 401.09594 77.804027 405.81836 67.336525 405.81836 67.292969 C 405.81836 67.268649 405.09476 67.235843 404.21094 67.220703 L 402.60352 67.193359 L 404.35742 63.302734 C 405.32193 61.162886 406.2136 59.1832 406.33984 58.902344 L 406.57031 58.390625 L 415.76953 58.390625 L 424.9668 58.390625 L 418.62891 72.484375 L 412.29102 86.576172 L 403.5293 89.480469 C 398.70998 91.077935 394.70938 92.398748 394.64062 92.416016 C 394.57182 92.433326 394.61146 92.236508 394.72656 91.978516 C 395.14242 91.047445 396.14453 88.67196 396.14453 88.617188 C 396.14453 88.586377 393.4156 88.541302 390.08008 88.515625 C 385.29275 88.478765 383.80908 88.436284 383.03711 88.316406 C 379.07745 87.701275 376.75057 86.409889 375.73438 84.263672 C 375.29859 83.343343 375.25908 81.616105 375.64648 80.421875 C 375.93684 79.526755 392.21715 43.240426 392.81055 42.166016 C 393.94557 40.110961 396.10173 38.876672 399.31445 38.443359 C 400.60031 38.26993 401.51379 38.259012 414.41211 38.257812 z M 439.17773 38.257812 L 454.28906 38.257812 C 468.60924 38.257812 469.39663 38.266419 469.32812 38.427734 C 469.28832 38.521354 468.36336 40.555264 467.27344 42.949219 L 465.29297 47.302734 L 458.19922 47.302734 L 451.10547 47.302734 L 448.67773 52.724609 C 447.34189 55.707014 446.21975 58.20266 446.18359 58.269531 C 446.13159 58.365671 447.56963 58.390625 453.0625 58.390625 L 460.00977 58.390625 L 459.90039 58.609375 C 459.84059 58.729744 458.94392 60.711386 457.9082 63.011719 L 456.02539 67.193359 L 449.08398 67.21875 L 442.14258 67.244141 L 441.84375 67.900391 C 439.23001 73.641042 436.92202 78.792782 436.92188 78.888672 C 436.92172 78.984282 438.48185 79.011719 444.22656 79.011719 C 448.29986 79.011719 451.51009 79.048603 451.48242 79.095703 C 451.45512 79.142153 450.26257 81.286489 448.83398 83.861328 L 446.23633 88.542969 L 431.375 88.542969 C 417.28902 88.542969 416.51735 88.533958 416.59375 88.373047 C 416.63815 88.279427 421.66663 77.108139 427.76953 63.546875 C 433.87243 49.985611 438.936 38.746131 439.02148 38.572266 L 439.17773 38.257812 z M 538.11523 38.257812 C 546.87479 38.257812 551.21875 38.289529 551.21875 38.355469 C 551.21875 38.436499 547.84829 45.917041 547.33008 46.986328 L 547.17773 47.302734 L 539.89258 47.302734 C 533.65328 47.302734 532.52681 47.324193 532.05469 47.453125 C 531.34016 47.64825 530.92565 47.90834 530.62109 48.353516 C 530.48585 48.551192 529.35271 51.018523 528.10156 53.835938 L 525.82617 58.958984 L 531.19336 58.996094 C 536.52421 59.033604 536.56673 59.035834 537.73633 59.291016 C 541.7668 60.170302 542.99101 62.322005 541.48633 65.880859 C 540.34827 68.572626 532.59857 85.700075 532.35547 86.060547 C 531.96041 86.646403 530.60336 87.491153 529.49023 87.84375 C 527.34625 88.522861 528.22695 88.48641 512.8418 88.519531 L 498.94727 88.550781 L 499.03711 88.328125 C 499.08741 88.20591 500.05857 86.0696 501.19336 83.582031 L 503.25586 79.060547 L 510.75586 79.011719 C 518.00462 78.964709 518.27689 78.955597 518.9375 78.755859 C 519.61107 78.552258 520.03286 78.25052 520.38086 77.720703 C 520.62936 77.342339 524.42969 68.575613 524.42969 68.380859 C 524.42969 68.052414 523.9185 68.019285 518.67383 68.017578 C 513.01216 68.015578 512.19005 67.959676 510.66211 67.470703 C 509.63496 67.141997 508.62117 66.433343 508.28516 65.806641 C 507.90596 65.099351 507.83849 64.014123 508.11328 63.066406 C 508.24397 62.6156 510.36738 57.756797 512.83203 52.269531 C 517.84446 41.10987 517.91739 40.976569 519.57227 39.878906 C 520.24529 39.43251 520.84478 39.14874 521.62109 38.90625 C 523.72162 38.250149 523.53736 38.257812 538.11523 38.257812 z M 474.37109 38.304688 L 490.0625 38.304688 L 505.75195 38.304688 L 506.80078 38.521484 C 508.87843 38.948708 510.36203 39.800214 511.05469 40.964844 C 511.49194 41.700053 511.60066 43.207481 511.28125 44.09375 C 510.76196 45.53459 503.24205 61.971452 502.90039 62.412109 C 501.96407 63.619725 499.515 64.594812 497.34961 64.623047 L 496.82422 64.628906 L 497.49219 64.822266 C 499.49747 65.400516 500.47988 66.816823 500.1582 68.664062 C 500.0667 69.189673 498.67419 72.434664 495.73633 78.962891 L 491.44531 88.494141 L 483.44531 88.519531 C 475.86953 88.543361 475.4496 88.535043 475.52734 88.373047 C 475.57254 88.278967 477.62562 83.737847 480.08789 78.28125 C 484.91917 67.574747 484.83172 67.815849 484.03711 67.369141 C 483.52678 67.082249 482.83136 67.032051 479.86719 67.066406 L 477.3457 67.095703 L 472.69531 77.455078 C 470.1381 83.152418 467.97174 87.977121 467.88086 88.177734 L 467.7168 88.542969 L 459.75977 88.542969 C 455.38389 88.542969 451.80474 88.510823 451.80664 88.470703 C 451.80864 88.430583 456.88763 77.126818 463.0918 63.351562 L 474.37109 38.304688 z M 489.65234 46.332031 C 486.91827 46.330031 486.64152 46.345061 486.57227 46.5 C 486.53037 46.59362 485.21674 49.514937 483.65234 52.992188 C 482.08793 56.469431 480.77428 59.390756 480.73242 59.484375 C 480.66162 59.642764 480.87987 59.65625 483.87109 59.65625 C 486.44052 59.65625 487.19642 59.624647 487.63867 59.503906 C 488.32674 59.316067 488.93231 58.945955 489.38086 58.439453 C 489.69453 58.085268 494.0678 48.600108 494.29492 47.78125 C 494.44703 47.232872 494.06564 46.752053 493.29492 46.523438 C 492.73117 46.356209 492.30604 46.33392 489.65234 46.332031 z M 255.16992 79.171875 C 255.31777 79.112485 255.35547 80.066799 255.35547 83.820312 L 255.35547 88.542969 L 246.94727 88.542969 C 242.32255 88.542969 238.53906 88.524583 238.53906 88.501953 C 238.53906 88.455693 254.87956 79.288541 255.16992 79.171875 z M 261.09961 90.388672 L 267.37305 90.414062 L 273.64648 90.439453 L 272.05859 91.65625 C 260.19691 100.74822 242.62967 105.62775 224.47461 104.87305 C 217.29635 104.57465 210.01001 103.32693 203.42773 101.27148 C 202.24647 100.90261 201.25297 100.58358 201.2207 100.5625 C 201.1572 100.521 205.0021 95.253613 205.18555 95.130859 C 205.24665 95.089899 206.09541 95.313833 207.07227 95.628906 C 219.05988 99.49535 233.24905 99.868144 245.83203 96.644531 C 251.00928 95.318182 255.66651 93.435167 260.57227 90.685547 L 261.09961 90.388672 z "
     id="rect1576" />
</svg>
