<?xml version="1.0" encoding="UTF-8" standalone="no"?>
<!-- Created with Inkscape (http://www.inkscape.org/) -->

<svg
   xmlns:dc="http://purl.org/dc/elements/1.1/"
   xmlns:cc="http://creativecommons.org/ns#"
   xmlns:rdf="http://www.w3.org/1999/02/22-rdf-syntax-ns#"
   xmlns:svg="http://www.w3.org/2000/svg"
   xmlns="http://www.w3.org/2000/svg"
   xmlns:sodipodi="http://sodipodi.sourceforge.net/DTD/sodipodi-0.dtd"
   xmlns:inkscape="http://www.inkscape.org/namespaces/inkscape"
   version="1.1"
   id="svg2"
   width="700"
   height="120"
   viewBox="0 0 700 120"
   sodipodi:docname="banner1.svg"
   inkscape:version="0.92.5 (2060ec1f9f, 2020-04-08)">
  <metadata
     id="metadata8">
    <rdf:RDF>
      <cc:Work
         rdf:about="">
        <dc:format>image/svg+xml</dc:format>
        <dc:type
           rdf:resource="http://purl.org/dc/dcmitype/StillImage" />
        <dc:title />
      </cc:Work>
    </rdf:RDF>
  </metadata>
  <defs
     id="defs6" />
  <sodipodi:namedview
     pagecolor="#ffffff"
     bordercolor="#666666"
     borderopacity="1"
     objecttolerance="10"
     gridtolerance="10"
     guidetolerance="10"
     inkscape:pageopacity="0"
     inkscape:pageshadow="2"
     inkscape:window-width="1920"
     inkscape:window-height="1016"
     id="namedview4"
     showgrid="false"
     inkscape:zoom="1.7213"
     inkscape:cx="284.30484"
     inkscape:cy="75.806182"
     inkscape:window-x="0"
     inkscape:window-y="27"
     inkscape:window-maximized="1"
     inkscape:current-layer="g817" />
  <g
     id="g817"
     transform="translate(18.590601,-171.04863)">
    <path
       style="opacity:1;fill:#000000;fill-opacity:1;stroke:none;stroke-width:0.97668678"
       d="M 118.51562 0 L 118.51562 120.25781 L 591.41406 120.25781 L 591.41406 0 L 118.51562 0 z M 451.26562 24.019531 C 455.12662 24.241265 454.75977 28.911425 454.75977 53.785156 C 454.75977 75.919236 455.05531 82.841087 456.03516 83.654297 C 456.73663 84.236457 459.54913 84.852711 462.28516 85.025391 L 467.25977 85.339844 L 467.25977 90.839844 L 467.25977 96.339844 L 455.08789 96.621094 C 448.3931 96.775184 442.71051 96.550184 442.45898 96.121094 C 442.20745 95.692014 441.83454 79.595946 441.63086 60.353516 L 441.25977 25.367188 L 446.25977 24.634766 C 447.97183 24.383576 449.34136 24.103497 450.43555 24.029297 C 450.73189 24.009201 451.00823 24.004749 451.26562 24.019531 z M 417.76953 24.839844 L 436.5332 24.839844 L 437.2168 29.402344 C 438.13426 35.520374 436.89711 36.839844 430.24414 36.839844 C 426.36057 36.839844 424.81444 37.256345 424.36719 38.421875 C 423.42364 40.880735 423.68149 51.168299 424.72852 52.824219 C 425.3068 53.738799 427.89352 54.506489 431.46484 54.824219 L 437.25977 55.339844 L 437.57227 59.664062 C 437.99332 65.516003 436.63984 66.839844 430.24414 66.839844 C 424.10578 66.839844 423.75977 67.314449 423.75977 75.730469 C 423.75977 83.311289 424.94285 84.688858 431.75977 85.048828 L 437.25977 85.339844 L 437.25977 90.839844 L 437.25977 96.339844 L 424.25977 96.339844 L 411.25977 96.339844 L 410.99414 67.589844 C 410.84332 51.247504 410.3379 38.839844 409.82227 38.839844 C 408.36699 38.839844 407.1764 43.907474 402.77539 68.839844 C 400.4939 81.764844 398.42481 93.352354 398.17578 94.589844 C 397.75509 96.680404 397.19678 96.839844 390.30078 96.839844 C 386.21872 96.839844 382.59101 96.376174 382.24023 95.808594 C 381.76063 95.032584 374.75977 58.860293 374.75977 57.158203 C 374.75977 56.983513 374.11606 56.839844 373.32812 56.839844 C 372.5402 56.839844 371.60653 57.748375 371.25391 58.859375 C 370.90129 59.970375 369.01958 62.966468 367.07227 65.517578 L 363.53125 70.15625 L 367.26758 82.248047 C 369.32242 88.898437 371.06231 94.789854 371.13281 95.339844 C 371.20587 95.909654 368.67858 96.339844 365.25977 96.339844 L 359.25977 96.339844 L 357.54102 90.839844 C 356.59584 87.814844 355.11308 82.792808 354.24609 79.679688 C 352.69802 74.121017 351.15213 72.361889 348.98828 73.699219 C 348.38055 74.074819 347.58156 79.349052 347.18555 85.607422 L 346.47656 96.839844 L 333.58594 96.839844 C 324.12829 96.839844 320.60484 96.507074 320.34766 95.589844 C 320.15489 94.902344 319.60638 92.539854 319.12891 90.339844 L 318.25977 86.339844 L 312.04102 86.042969 C 305.9512 85.752229 305.80856 85.804229 305.20312 88.542969 C 304.86306 90.081279 304.25006 92.464844 303.83984 93.839844 L 303.09375 96.339844 L 289.67773 96.339844 L 276.25977 96.339844 L 276.19922 83.839844 C 276.12863 69.281114 276.05947 68.536959 274.8457 69.287109 C 274.10371 69.745679 271.27449 80.540094 268.21289 94.589844 C 267.82117 96.387454 267.0369 96.839844 264.3125 96.839844 C 260.98866 96.839844 260.87735 96.707114 259.93164 91.589844 C 259.39801 88.702344 258.45928 82.770593 257.8457 78.408203 C 257.23211 74.045823 256.54268 70.288784 256.3125 70.058594 C 254.77428 68.520374 253.86853 72.447283 253.23633 83.408203 C 252.53774 95.520093 252.42102 96.018369 250.07031 96.912109 C 246.01403 98.454299 239.78156 98.060107 239.07422 96.216797 C 238.73167 95.324147 238.95201 91.161647 239.56445 86.966797 C 240.17689 82.771947 240.68827 67.671846 240.70117 53.410156 C 240.7191 33.588706 241.02352 27.290631 241.99219 26.675781 C 243.60652 25.651151 257.48631 25.587102 258.11328 26.601562 C 258.37215 27.020412 259.77668 34.107912 261.23633 42.351562 C 262.69597 50.595213 264.24071 57.697002 264.66797 58.132812 C 266.28375 59.780943 267.61513 55.935864 269.79297 43.339844 C 273.06425 24.419644 272.15832 25.702558 282 26.048828 L 290.25977 26.339844 L 290.26758 55.013672 C 290.27118 70.783942 290.59477 84.008834 290.98828 84.402344 C 292.48733 85.901404 293.97329 79.538294 299.75977 46.839844 C 301.46306 37.214844 303.09149 28.552344 303.37695 27.589844 C 303.82064 26.093804 305.18109 25.839844 312.75977 25.839844 C 320.3264 25.839844 321.70578 26.096184 322.17578 27.589844 C 322.47864 28.552344 324.31547 39.014844 326.25781 50.839844 C 330.81163 78.563544 331.67271 82.327084 333.12891 80.871094 C 333.8955 80.104614 334.37565 71.060066 334.61719 52.791016 L 334.97266 25.839844 L 344.11719 25.884766 C 354.10996 25.932736 358.94393 27.217226 364.19531 31.222656 C 368.83549 34.761886 369.75977 34.532194 369.75977 29.839844 L 369.75977 25.839844 L 375.79102 25.839844 C 379.843 25.839844 381.98823 26.269731 382.32617 27.150391 C 382.60283 27.871371 384.12889 36.460761 385.7168 46.238281 C 387.30471 56.015811 388.87189 64.283998 389.19922 64.611328 C 390.6976 66.109708 391.76402 62.088634 394.31445 45.339844 C 395.82198 35.439844 397.49517 26.777344 398.03125 26.089844 C 398.74937 25.168884 403.94482 24.839844 417.76953 24.839844 z M 351.08203 37.996094 C 350.88773 37.986494 350.70052 37.993531 350.51758 38.019531 C 348.35346 38.326821 348.24847 38.787866 347.97461 49.259766 C 347.78081 56.670756 348.05796 60.405899 348.83594 60.886719 C 350.72194 62.052329 353.62911 60.784821 356.27148 57.644531 C 358.26235 55.278521 358.75977 53.586477 358.75977 49.185547 C 358.75977 44.410207 358.36655 43.292329 355.76758 40.693359 C 354.06871 38.994489 352.44217 38.063194 351.08203 37.996094 z M 312.48047 48.941406 C 312.03371 48.956136 311.62478 49.621961 311.30859 51.019531 C 310.77635 53.372081 307.75977 72.362868 307.75977 73.361328 C 307.75977 73.659978 308.77227 74.312657 310.00977 74.810547 C 311.24727 75.308437 312.85931 75.517944 313.5918 75.277344 C 314.32428 75.036734 315.33678 74.839844 315.8418 74.839844 C 317.0625 74.839844 316.88434 67.186728 315.43555 57.423828 C 314.6346 52.026508 313.46335 48.909006 312.48047 48.941406 z "
       transform="translate(-18.590601,171.04863)"
       id="rect2169" />
  </g>
</svg>
